<svg
  xmlns="http://www.w3.org/2000/svg"
  xmlns:xlink="http://www.w3.org/1999/xlink"
  width="28px" height="28px">
  <path fill-rule="evenodd"  opacity="0.102" fill="rgb(2, 34, 64)"
  d="M27.577,21.437 C26.730,22.906 24.853,23.409 23.384,22.561 L15.378,17.938 L10.447,26.480 C9.599,27.948 7.722,28.451 6.254,27.603 C4.786,26.755 4.283,24.878 5.130,23.411 L10.062,14.868 L1.521,9.937 C0.052,9.090 -0.451,7.212 0.397,5.743 C1.245,4.275 3.122,3.772 4.590,4.620 L13.131,9.551 L17.753,1.544 C18.601,0.076 20.478,-0.427 21.946,0.421 C23.415,1.268 23.918,3.146 23.070,4.614 L18.448,12.621 L26.454,17.244 C27.922,18.092 28.425,19.969 27.577,21.437 Z"/>
</svg>
