<?xml version="1.0" encoding="UTF-8"?>
<!DOCTYPE svg PUBLIC "-//W3C//DTD SVG 1.1//EN" "http://www.w3.org/Graphics/SVG/1.1/DTD/svg11.dtd">
<!-- Creator: CorelDRAW -->
<svg xmlns="http://www.w3.org/2000/svg" xml:space="preserve" width="158.75mm" height="143.85mm" style="shape-rendering:geometricPrecision; text-rendering:geometricPrecision; image-rendering:optimizeQuality; fill-rule:evenodd; clip-rule:evenodd"
viewBox="0 0 158.75 143.85"
 xmlns:xlink="http://www.w3.org/1999/xlink">
 <defs>
  <style type="text/css">
   <![CDATA[
    .str1 {stroke:red;stroke-width:0.0369}
    .str6 {stroke:yellow;stroke-width:0.0369}
    .str0 {stroke:black;stroke-width:0.0763}
    .str7 {stroke:black;stroke-width:0.1212}
    .str4 {stroke:#999999;stroke-width:0.1697}
    .str11 {stroke:black;stroke-width:0.2425}
    .str8 {stroke:yellow;stroke-width:0.2909}
    .str9 {stroke:#DB214C;stroke-width:0.3395}
    .str3 {stroke:black;stroke-width:0.4849}
    .str10 {stroke:red;stroke-width:0.4849}
    .str2 {stroke:black;stroke-width:0.7005}
    .str5 {stroke:black;stroke-width:0.7274}
    .fil4 {fill:none}
    .fil21 {fill:none;fill-rule:nonzero}
    .fil0 {fill:black}
    .fil7 {fill:#0000C8}
    .fil13 {fill:#2F5D72}
    .fil2 {fill:#4C4C4C}
    .fil11 {fill:#645934}
    .fil19 {fill:#997A1D}
    .fil10 {fill:#AF7C2C}
    .fil9 {fill:#BA8628}
    .fil16 {fill:#C89817}
    .fil5 {fill:#CCCCCC}
    .fil17 {fill:#CFA310}
    .fil12 {fill:#D9AA0D}
    .fil18 {fill:#E5AD0C}
    .fil3 {fill:#E5E5E5}
    .fil14 {fill:#E6B209}
    .fil15 {fill:#EBB603}
    .fil1 {fill:#F00000}
    .fil8 {fill:#F8C300}
    .fil22 {fill:#FF6600}
    .fil6 {fill:#FFCC00}
    .fil20 {fill:#BA8628;fill-rule:nonzero}
   ]]>
  </style>
 </defs>
 <g id="Layer_x0020_1">
  <metadata id="CorelCorpID_0Corel-Layer"/>
  <rect class="fil0 str0" x="118.516" y="32.4534" width="7.5719" height="16.1539"/>
  <rect class="fil0 str0" x="32.9619" y="32.4378" width="6.9144" height="16.0617"/>
  <rect class="fil1 str1" x="23.4016" y="79.7995" width="3.5078" height="1.0484"/>
  <path class="fil1 str2" d="M99.6787 136.049l0.0635 5.1852c0,0 -2.198,4.3959 -12.4553,0.942 -5.376,-2.6287 -10.6138,-2.6287 -15.9899,0 -10.2572,3.454 -12.4553,-0.942 -12.4553,-0.942l0.0384 -5.1852 -10.281 -10.1799 22.0116 2.6312c0,0 3.2434,-0.3671 5.233,-1.1535 2.5314,-1.0004 4.3651,-1.0004 6.8964,0 1.9896,0.7863 5.208,1.1535 5.208,1.1535l21.9864 -2.6312 -10.2558 10.1799 0 0z"/>
  <path class="fil1 str2" d="M70.611 121.633l-4.3524 2.5514c-6.3874,-0.4193 -16.7471,4.5255 -2.4538,6.0457 4.3979,0.0524 2.8272,-0.7339 6.8063,-1.73l0 -6.8672 -0.0001 0 0 0.0001z"/>
  <path class="fil1 str2" d="M29.2617 53.3213c0,0 4.6053,-3.9773 3.5587,-15.3859l2.8017 0.5627c0.5675,-3.6248 -3.5744,-10.7407 -9.919,5.1939 -4.5006,18.8399 3.5586,9.6292 3.5586,9.6292l0 0.0001z"/>
  <path class="fil1 str2" d="M40.6136 136.531c0,0 2.56,5.1794 12.4554,1.0379 3.5078,-2.0445 3.7698,-1.1009 5.8115,-1.5203 0,0 -0.3666,-3.7744 -1.6754,-6.4479 -1.3089,-2.6735 -1.4658,-5.0326 8.22,-5.3471 9.6859,-0.3145 4.2407,-7.4439 -1.6232,-5.2947 -5.8639,2.1494 -10.2506,4.7857 -12.6122,4.9353 -2.3616,0.1496 -10.5761,12.6367 -10.5761,12.6367l-0.0001 0.0001 0.0001 0z"/>
  <path class="fil1 str2" d="M47.5381 73.5151c0,0 -5.966,-1.1513 -12.5599,-4.8147 -6.594,-3.6633 -16.6418,-5.5473 -20.6192,3.8726 0.7347,2.7099 3.6107,3.7155 4.2913,11.304 2.932,3.3421 8.2687,2.3027 10.9899,-0.4186 2.7213,-2.7213 -4.0398,-2.5578 -6.2388,-2.0337 0,-0.5068 0,-1.0136 0,-1.5203 8.6327,-1.2582 14.5951,4.2986 23.3324,7.706l0.8042 -14.0953 0.0001 0z"/>
  <path class="fil1 str2" d="M46.0778 118.084c0,0 -8.7878,0.4735 -2.9996,3.5453 5.7882,3.0717 12.2911,-2.4058 2.9996,-3.5453z"/>
  <path class="fil1 str2" d="M51.1195 122.269c-3.5876,0.3698 -5.7581,1.9152 -10.7628,1.1095l0.6065 -2.8621c0,0 2.0038,3.1576 10.1563,1.7526z"/>
  <path class="fil1 str3" d="M51.1195 122.269c1.3229,-2.0502 -0.5802,-2.4776 -0.5802,-2.4776 0,0 0.4715,0.7879 -0.777,2.6775 0.728,0.5135 1.3572,-0.1999 1.3572,-0.1999z"/>
  <path class="fil1 str2" d="M87.9735 121.633l4.3524 2.5514c6.3875,-0.4193 16.7472,4.5255 2.4539,6.0457 -4.3979,0.0524 -2.8272,-0.7339 -6.8063,-1.73l0 -6.8672 0 0.0001z"/>
  <path class="fil1 str2" d="M129.323 53.3213c0,0 -4.6053,-3.9773 -3.5586,-15.3859l-2.8017 0.5627c-0.5675,-3.6248 3.5744,-10.7407 9.919,5.1939 4.5006,18.8399 -3.5587,9.6292 -3.5587,9.6292l0 0.0001z"/>
  <rect class="fil1 str1" x="131.675" y="79.7995" width="3.5078" height="1.0484"/>
  <path class="fil1 str2" d="M117.971 136.531c0,0 -2.56,5.1794 -12.4553,1.0379 -3.5078,-2.0445 -3.7698,-1.1009 -5.8115,-1.5203 0,0 0.3666,-3.7744 1.6755,-6.4479 1.3088,-2.6735 1.4658,-5.0326 -8.22,-5.3471 -9.6859,-0.3145 -4.2407,-7.4439 1.6231,-5.2947 5.8639,2.1494 10.2506,4.7857 12.6123,4.9353 2.3616,0.1496 10.5761,12.6367 10.5761,12.6367l-0.0001 0.0001 -0.0001 0z"/>
  <path class="fil1 str2" d="M111.047 73.5151c0,0 5.9659,-1.1513 12.5599,-4.8147 6.594,-3.6633 16.6418,-5.5473 20.6192,3.8726 -0.7348,2.7099 -3.6107,3.7155 -4.2913,11.304 -2.9319,3.3421 -8.2686,2.3027 -10.9899,-0.4186 -2.7213,-2.7213 4.0398,-2.5578 6.2387,-2.0337 0,-0.5068 0,-1.0136 0,-1.5203 -8.6326,-1.2582 -14.5951,4.2986 -23.3324,7.706l-0.8042 -14.0953z"/>
  <path class="fil1 str2" d="M112.507 118.084c0,0 8.7878,0.4735 2.9996,3.5453 -5.7882,3.0717 -12.2911,-2.4058 -2.9996,-3.5453z"/>
  <path class="fil1 str2" d="M107.465 122.269c3.5876,0.3698 5.7581,1.9152 10.7627,1.1095l-0.6064 -2.8621c0,0 -2.0038,3.1576 -10.1563,1.7526z"/>
  <path class="fil1 str3" d="M107.465 122.269c-1.3229,-2.0502 0.5802,-2.4776 0.5802,-2.4776 0,0 -0.4715,0.7879 0.777,2.6775 -0.728,0.5135 -1.3572,-0.1999 -1.3572,-0.1999z"/>
  <path class="fil2 str4" d="M148.384 124.621c1.3453,1.7789 -1.164,4.5026 -2.9682,3.7782l-96.2869 -67.5703 2.8578 -3.8556c8.3499,5.8274 86.7862,60.9031 96.3972,67.6479l0 -0.0002 0.0001 0z"/>
  <path class="fil3 str4" d="M55.9714 0.3098c-49.5287,27.2754 -48.7754,50.3621 -55.8535,62.076l7.6634 4.307 7.6468 -1.0579c0.4571,-15.4247 20.1052,-49.8478 40.5434,-65.3251l0.0001 -0.0001 -0.0002 0.0001z"/>
  <path class="fil2 str4" d="M20.1198 41.9212c-1.1667,-1.2821 1.3402,-4.2109 2.8126,-3.7557l18.5626 13.5383 -1.5833 3.278c-6.952,-3.9901 -13.4268,-8.266 -19.7918,-13.0605l0 -0.0001 -0.0001 0z"/>
  <path class="fil4 str4" d="M55.9714 0.3098c-31.8376,17.5453 -47.0469,59.9321 -48.1901,66.3829"/>
  <path class="fil2 str4" d="M15.6755 32.4478l-3.68 4.938 -2.4951 -1.4632c-2.0805,-1.2202 0.7107,-5.9708 3.0791,-5.2563l3.0959 1.7816 0.0001 -0.0001z"/>
  <path class="fil2 str4" d="M10.3663 124.621c-1.3453,1.7789 1.164,4.5026 2.9682,3.7782l96.2869 -67.5703 -2.8578 -3.8556c-8.3499,5.8274 -86.7862,60.9031 -96.3972,67.6479l0 -0.0002 -0.0001 0z"/>
  <path class="fil3 str4" d="M102.779 0.3098c49.5287,27.2754 48.7754,50.3621 55.8535,62.076l-7.6634 4.307 -7.6468 -1.0579c-0.4571,-15.4247 -20.1052,-49.8478 -40.5434,-65.3251l-0.0001 -0.0001 0.0002 0.0001z"/>
  <path class="fil2 str4" d="M138.63 41.9212c1.1667,-1.2821 -1.3402,-4.2109 -2.8126,-3.7557l-18.5626 13.5383 1.5833 3.278c6.952,-3.9901 13.4268,-8.266 19.7918,-13.0605l0 -0.0001 0.0001 0z"/>
  <path class="fil4 str4" d="M102.779 0.3098c31.8376,17.5453 47.0469,59.9321 48.1901,66.3829"/>
  <path class="fil2 str4" d="M143.075 32.4478l3.68 4.938 2.4951 -1.4632c2.0805,-1.2202 -0.7107,-5.9708 -3.0791,-5.2563l-3.0959 1.7816 -0.0001 -0.0001z"/>
  <path class="fil1 str2" d="M25.9772 55.5666l0.0006 -0.0015c1.4326,-0.1289 3.2839,-2.2437 3.2839,-2.2437 0,0 4.6053,-3.9773 3.5587,-15.3859l3.9139 0.9285c0,0 1.0344,12.4777 -2.6829,20.9701 -2.2514,-0.367 -5.2468,-4.058 -8.0741,-4.2676l-0.0001 0.0001z"/>
  <path class="fil4 str5" d="M18.6503 83.877c0,0 0.8968,-4.1345 4.7511,-3.9726"/>
  <path class="fil4 str5" d="M139.934 83.877c0,0 -0.8968,-4.1345 -4.7511,-3.9726"/>
  <path class="fil1 str2" d="M132.072 55.5666l-0.0006 -0.0015c-1.4326,-0.1289 -3.2839,-2.2437 -3.2839,-2.2437 0,0 -4.6053,-3.9773 -3.5587,-15.3859l-3.9139 0.9285c0,0 -1.0344,12.4777 2.6829,20.9701 2.2514,-0.367 5.2468,-4.058 8.0741,-4.2676l0.0001 0.0001z"/>
  <path class="fil1 str2" d="M46.8787 32.6269l-12.3242 0.283c0,0 8.523,3.665 -2.5715,33.8087 -11.0946,30.1437 -16.9879,46.16 -11.543,56.6309 5.445,10.4711 18.2192,16.5444 31.2034,11.3088 0.5738,-5.3617 -0.2128,-3.8346 -0.5237,-12.3894 -10.3042,3.6111 -28.9332,3.0089 -11.2866,-35.7688 10.048,-17.0604 10.7638,-49.6419 10.7638,-49.6419 0,0 -0.6113,-3.3188 -3.7181,-4.2315l0 0 -0.0001 0.0002z"/>
  <path class="fil1 str2" d="M111.706 32.6269l12.3242 0.283c0,0 -8.523,3.665 2.5716,33.8087 11.0946,30.1437 16.9879,46.16 11.543,56.6309 -5.445,10.4711 -18.2192,16.5444 -31.2034,11.3088 -0.5738,-5.3617 0.2128,-3.8346 0.5238,-12.3894 10.3042,3.6111 28.9332,3.0089 11.2866,-35.7688 -10.048,-17.0604 -10.7638,-49.6419 -10.7638,-49.6419 0,0 0.6112,-3.3188 3.7179,-4.2315l0 0 0.0001 0.0002z"/>
  <path class="fil5" d="M54.7445 27.8599l2.4117 6.8468 2.6159 7.4271c13.6256,0 27.2513,0 40.8768,0l0.7369 -2.0923 1.8791 -5.3348 2.4117 -6.8468 4.4056 -12.5078 -7.7922 -2.9398 -3.9052 0.9232 -3.7698 11.2366c-2.3165,-0.4204 -4.6492,-0.7605 -6.9897,-1.017l0.0202 -13.0978 -14.8702 0 -0.0055 13.1029c-2.3167,0.2539 -4.6264,0.5881 -6.9197,1.0034l-3.814 -11.2281 -3.9052 -0.9232 -7.7922 2.9398 4.4056 12.5078 0.0002 0z"/>
  <path class="fil4 str3" d="M65.8501 24.5636l-3.814 -11.2281 -3.9052 -0.9232m29.4945 11.1459l0.0202 -13.1008 -14.8702 0 -0.0056 13.1024m-10.9516 9.2142l-2.4516 -6.7509m12.2704 4.7773l-1.8923 -6.8614m-7.6817 16.9838l-2.6023 -7.3558m11.1159 4.983l-2.8148 -7.144m9.1913 6.3903l-1.1416 -7.4232m-6.9955 11.7607l-1.0334 -3.0149m6.8911 3.0149l-1.4648 -3.9828m21.4062 -13.5789l3.7697 -11.2366 3.9052 -0.9232m-22.0527 17.7889c8.2795,0 19.5289,2.1385 23.0275,4.5054m-46.1087 0.0001c3.4985,-2.367 14.8019,-4.5054 23.0813,-4.5054l0 -7.1041c8.2795,0 21.9674,2.4138 25.466,4.7808m-7.1006 4.8959l2.4498 -6.7455m-12.2685 4.772l1.8926 -6.8623m7.6813 16.9847l2.6023 -7.3558m-11.1159 4.983l2.8169 -7.149m-9.1933 6.3953l1.1415 -7.4232m6.9956 11.7607l1.0334 -3.0149m-6.8911 3.0149l1.4647 -3.9828m-32.4675 -10.2911c3.4985,-2.367 17.2136,-4.7627 25.493,-4.7627l0 7.1041m-0.0001 11.9325l-0.0538 -4.4384c8.2795,0 16.9668,2.0714 20.4653,4.4384m-20.4653 0l0 -4.4384c-8.2795,0 -16.913,2.0714 -20.4115,4.4384m0 0l40.8768 0c0.2457,-0.6974 0.4913,-1.395 0.7369,-2.0923 2.8988,-8.2298 5.7977,-16.4596 8.6963,-24.6892l-7.7922 -2.9398c-1.5949,4.2456 -3.1896,8.4912 -4.7844,12.7369m-37.7335 16.9844c-3.1444,-8.9272 -6.2888,-17.8545 -9.4332,-26.7817l7.7922 -2.9398 4.8815 12.7123"/>
  <path class="fil6 str6" d="M46.6985 42.3694l0 69.3404c0,4.8673 0.6411,4.8934 4.8934,4.8934 4.3916,0 4.8572,0.0001 19.5305,0.419 2.8641,2.6547 6.1671,5.2786 8.2526,8.6252 2.0857,-3.3465 5.388,-5.9703 8.2525,-8.6252 14.6734,-0.4189 15.1391,-0.419 19.5306,-0.419 4.2524,0 4.8934,-0.0261 4.8934,-4.8934l0 -69.3404 -41.5412 0 -23.8118 0z"/>
  <path class="fil0 str7" d="M62.223 116.772l0 -12.7926 2.4967 0 4.7932 -28.2818 19.8192 0 4.7932 28.2818 2.4967 0 0 12.79 -4.6472 0.0459c1.3512,0.0111 0.491,0.0683 -4.3472,0.2064 -2.8644,2.6549 -6.1667,5.2786 -8.2525,8.6252 -2.0854,-3.3465 -5.3884,-5.9705 -8.2526,-8.6252l-8.8996 -0.2497 0.0002 0 -0.0001 0z"/>
  <rect class="fil7" x="46.9409" y="42.6314" width="23.8118" height="26.3075"/>
  <polygon class="fil8" points="54.2709,63.7798 54.8331,64.804 56.001,64.7788 55.3954,65.7779 56.001,66.7767 54.8331,66.7518 54.2709,67.7758 53.7084,66.7518 52.5405,66.7767 53.1462,65.7779 52.5405,64.7788 53.7084,64.804 "/>
  <polygon class="fil8" points="50.5456,58.192 51.1078,59.216 52.2757,59.1908 51.6703,60.1899 52.2757,61.189 51.1078,61.1638 50.5456,62.1878 49.9833,61.1638 48.8155,61.189 49.4208,60.1899 48.8155,59.1908 49.9833,59.216 "/>
  <polygon class="fil8" points="49.7553,50.9107 50.3175,51.9344 51.4854,51.9095 50.8797,52.9086 51.4854,53.9076 50.3175,53.8825 49.7553,54.9064 49.1928,53.8825 48.0249,53.9076 48.6305,52.9086 48.0249,51.9095 49.1928,51.9344 "/>
  <polygon class="fil8" points="51.7873,45.5486 52.3498,46.5726 53.5174,46.5474 52.9117,47.5462 53.5174,48.5453 52.3498,48.5204 51.7873,49.5444 51.225,48.5204 50.0572,48.5453 50.6625,47.5462 50.0572,46.5474 51.225,46.5726 "/>
  <polygon class="fil8" points="58.1089,43.4037 58.6712,44.4276 59.8391,44.4025 59.2334,45.4015 59.8391,46.4003 58.6712,46.3755 58.1089,47.3991 57.5467,46.3755 56.3786,46.4003 56.9845,45.4015 56.3786,44.4025 57.5467,44.4276 "/>
  <path class="fil9" d="M56.0965 50.1331l-0.4551 0.2275c0.3403,0.4897 0.0332,0.2996 0.6907,0.4573l-0.1881 1.1689 0.6351 -0.9434 0 -0.4552c0.7277,-0.4873 0.1593,-0.3736 1.1036,-0.4437l0.2617 0.4437 0.0125 -0.4503 0.2151 -0.6874c-2.0246,0 -1.2916,0.4168 -2.2755,1.1377l0 -0.4551z"/>
  <path class="fil10" d="M58.1447 50.5882c0,0.5035 0.7722,0.0852 1.1378,0l0 -1.1377c0.5358,0.2835 0.7687,0.4857 1.1378,0.9101l0 -0.4551c-0.2372,-0.3542 -0.3017,-0.6826 -0.9102,-0.6826l-0.7291 0.0117 0.261 1.0763 -0.8972 0.2772 -0.0001 0 0 0.0001z"/>
  <polygon class="fil11" points="57.2345,52.1809 57.9491,52.1746 57.6896,51.4983 57.6782,51.9193 "/>
  <path class="fil12" d="M56.0965 50.1331l0 0.4551c0.9839,-0.7209 0.2509,-1.1377 2.2755,-1.1377l-0.2151 0.6874 -0.0125 0.4503 0.8972 -0.2772 -0.261 -1.0763 0.7291 -0.0117c0.6085,0 0.673,0.3285 0.9102,0.6826l0 0.4551 0 0.4552c-0.7718,0.1798 -1.5928,0.0837 -1.5928,0.9102 0,0.6085 0.3285,0.673 0.6826,0.9102l1.1377 0 0.9102 -0.6826c0.1115,-1.3402 0.4551,-0.4746 0.4551,-1.3654 0,-0.8422 -0.3521,-0.5732 -0.9101,-0.4551 -0.5431,-0.811 -0.9499,-1.3357 -2.2754,-1.3653l0 -0.6826 -0.6827 0c-0.3475,1.3013 -1.1443,0.3403 -2.0479,2.0479l-0.0001 -0.0001z"/>
  <polygon class="fil13" points="61.5578,54.2286 61.5578,53.7737 "/>
  <path class="fil14" d="M55.8693 54.6836l0.4551 -0.4551 0.4551 0 0 -0.2276 0 -1.5928 0.4551 -0.2275 0.4437 -0.2617 0.0114 -0.421 -0.9102 -0.4551 -0.6351 0.9434 0.1881 -1.1689c-0.6575,-0.1575 -0.3506,0.0324 -0.6907,-0.4573l-0.9102 0c0.2579,0.966 0.4551,0.3981 0.4551,1.1378l0 1.3654 -0.0092 0.4598 0.6918 1.3606 0.0001 0 -0.0001 0z"/>
  <path class="fil15" d="M57.462 53.5462c0.393,0 0.2276,0.9167 0.2276,1.3653l0.2275 0c0,-0.7065 -0.1585,-1.2703 0.2276,-1.5928l0.4552 0c0.3685,0.5808 0.2276,0.6874 0.2276,1.5928l0.4551 0c0,-0.7065 -0.1586,-1.2703 0.2276,-1.5928 -0.3373,-0.4038 -1.5675,-0.2275 -2.2755,-0.2275l0.2276 0.4551 -0.0001 0 -0.0002 -0.0001z"/>
  <path class="fil16" d="M58.1447 55.8216l0.4552 0 0 0.6826 -0.4552 0 0 -0.6826zm-0.6826 -2.2755l0 0.4551 -0.6826 0 0 0.2276 0.7234 0.0729 -0.6737 0.3952 -0.2772 0.8972c1.1206,0.0933 1.0967,0.2748 0.6826,1.1378 0.708,0 1.9382,0.1762 2.2755,-0.2276 -1.1706,0 0.9102,-1.3422 0.9102,-1.5928 0,-0.6914 -0.3947,-0.7725 -0.8791,-0.9061l-0.2587 0.9061 -0.4551 0c0,-0.9054 0.1409,-1.0121 -0.2276,-1.5928l0 1.5928 -0.4552 0 0 -1.5928c-0.3861,0.3226 -0.2276,0.8864 -0.2276,1.5928l-0.2275 0c0,-0.4486 0.1654,-1.3653 -0.2276,-1.3653l0.0001 0 0.0001 -0.0001z"/>
  <path class="fil17" d="M55.8693 54.6836c-0.5869,0.8764 -0.8573,1.2991 -1.1377,2.5031 0.3,0.4482 0.4693,1.0422 0.9566,1.3537l-0.2739 -1.1261c0.6732,-0.1797 0.3688,-0.0926 0.9102,-0.4551l0.0124 -0.6778 0.2151 -0.6874 0.2772 -0.8972 0.6737 -0.3952 -0.7234 -0.0729 -0.4551 0 -0.4551 0.4551 -0.0001 -0.0001 0.0001 -0.0001z"/>
  <polygon class="fil11" points="62.0129,60.1449 62.2727,59.4684 62.923,59.2347 62.0129,59.2347 "/>
  <path class="fil12" d="M59.7375 56.9593l0 0.4551 -0.6553 0.4881 -0.7148 -0.2481c-0.2926,0.5874 -0.2228,-0.1998 -0.2228,0.6702 0,0.4658 0.4688,0.4184 0.9102,0.4551l0.4552 0.6826c1.2651,0 1.3367,0.1411 1.3653,-1.1377l-0.9014 0.2554c0.1266,-0.5349 0.0443,-0.7105 0.6738,-0.7105l0.4551 0c0.2366,0.4471 0.4551,0.671 0.4551,1.3654 0,0.5245 -0.6361,0.4438 -1.1377,0.4551l0 0.4552 -0.6339 0.7314 -0.959 -0.0487 0.9101 0.2276 0 0.2275c-0.7059,0 -1.0429,-0.1583 -1.3653,0.2275l0.6826 0.2276 0.9102 0c1.6406,-0.7872 0.9984,-0.0255 2.0479,-1.5928l0 -0.9102 0.9102 0 0 -0.9102 -0.9102 0c-0.2086,-0.8952 -0.1054,-0.9228 -0.9101,-1.1377l0.2554 -0.9013 -0.938 -0.0089 -0.2152 0.6874 -0.4675 -0.0047 0 -0.0001 0.0001 -0.0003z"/>
  <path class="fil18" d="M54.7313 57.1869l-0.9102 0c0.2267,0.6263 0.3278,0.5202 0.9102,0.9102 0.0933,1.1221 0.6742,1.6196 0.9102,2.503 1.1466,0.3061 0.5948,0.7992 2.0479,1.1378l0.1876 0.9206 0.9501 -0.238 -0.0163 -0.7251 -0.7004 0.2586 0.2617 -0.4437c0.3224,-0.3858 0.6594,-0.2275 1.3653,-0.2275l0 -0.2275 -0.9101 -0.2276 -0.2655 -0.1896 0.493 -0.0379 0 -0.9102 -0.9102 0 -0.2772 0.8972c-0.4957,-0.1327 -1.0881,-0.7466 -1.0881,-1.3523l0 -0.2276 0 -0.4552 0.6663 -0.27c-0.0533,-0.7947 -0.0567,-0.798 -0.8939,-0.8677l-0.2275 -0.4551c-0.5413,0.3625 -0.237,0.2753 -0.9102,0.4551l0.2739 1.1261c-0.4873,-0.3114 -0.6565,-0.9055 -0.9566,-1.3537l-0.0001 0 0.0001 0.0001z"/>
  <polygon class="fil19" points="58.8273,62.4203 59.0548,61.738 58.3722,61.5102 58.1105,61.9539 58.8109,61.6951 "/>
  <polygon class="fil8" points="62.4574,63.7798 61.8949,64.804 60.727,64.7788 61.3326,65.7779 60.727,66.7767 61.8949,66.7518 62.4574,67.7758 63.0194,66.7518 64.1875,66.7767 63.5819,65.7779 64.1875,64.7788 63.0194,64.804 "/>
  <polygon class="fil8" points="66.1824,58.192 65.6202,59.216 64.4523,59.1908 65.058,60.1899 64.4523,61.189 65.6202,61.1638 66.1824,62.1878 66.745,61.1638 67.9128,61.189 67.3072,60.1899 67.9128,59.1908 66.745,59.216 "/>
  <polygon class="fil8" points="66.9728,50.9107 66.4103,51.9344 65.2424,51.9095 65.848,52.9086 65.2424,53.9076 66.4103,53.8825 66.9728,54.9064 67.535,53.8825 68.7029,53.9076 68.0972,52.9086 68.7029,51.9095 67.535,51.9344 "/>
  <polygon class="fil8" points="64.9408,45.5486 64.3785,46.5726 63.2106,46.5474 63.816,47.5462 63.2106,48.5453 64.3785,48.5204 64.9408,49.5444 65.5033,48.5204 66.6711,48.5453 66.0655,47.5462 66.6711,46.5474 65.5033,46.5726 "/>
  <path class="fil20" d="M52.862 56.0846l-0.4693 0 0 -1.7694c-0.1716,0.1608 -0.3735,0.2794 -0.6062,0.3559l0 -0.426c0.122,-0.0399 0.2555,-0.1158 0.3991,-0.2275 0.1437,-0.1123 0.2424,-0.2429 0.2954,-0.3923l0.3809 0 0 2.4594 0 -0.0001 0.0001 0z"/>
  <path id="_1_0" class="fil20" d="M53.5642 54.105l0 -0.4357 1.6052 0 0 0.3405c-0.1323,0.1306 -0.2668,0.3176 -0.4043,0.5616 -0.1368,0.2435 -0.2412,0.5029 -0.313,0.7772 -0.0719,0.2748 -0.1072,0.52 -0.1061,0.7362l-0.4528 0c0.0079,-0.3387 0.0776,-0.6836 0.2099,-1.0355 0.1317,-0.3524 0.3079,-0.6666 0.5286,-0.9442l-1.0674 0 -0.0001 -0.0001z"/>
  <path class="fil20" d="M61.2538 54.7633c-0.1215,-0.0513 -0.2099,-0.1221 -0.2646,-0.2116 -0.0552,-0.0895 -0.0827,-0.1881 -0.0827,-0.2948 0,-0.1824 0.0633,-0.3336 0.191,-0.4528 0.1277,-0.1192 0.309,-0.179 0.544,-0.179 0.2327,0 0.4134,0.0598 0.5417,0.179 0.1289,0.1192 0.1934,0.2703 0.1934,0.4528 0,0.1135 -0.0297,0.2145 -0.089,0.3033 -0.0587,0.0884 -0.142,0.1562 -0.2486,0.2031 0.1357,0.0541 0.2389,0.134 0.3096,0.2389 0.0707,0.1044 0.1061,0.2253 0.1061,0.3621 0,0.2264 -0.0719,0.41 -0.2162,0.5514 -0.1442,0.1414 -0.3359,0.2122 -0.5753,0.2122 -0.223,0 -0.4083,-0.0581 -0.5565,-0.175 -0.175,-0.1386 -0.2623,-0.3279 -0.2623,-0.5685 0,-0.1323 0.033,-0.2538 0.0987,-0.365 0.0656,-0.1107 0.1693,-0.1962 0.3107,-0.256l-0.0001 0 0.0001 -0.0001zm0.0969 -0.4728c0,0.0936 0.0262,0.1665 0.0793,0.2184 0.053,0.0524 0.1232,0.0787 0.2116,0.0787 0.089,0 0.1602,-0.0262 0.2139,-0.0793 0.053,-0.053 0.0799,-0.126 0.0799,-0.2195 0,-0.0884 -0.0262,-0.1585 -0.0793,-0.2116 -0.053,-0.053 -0.1226,-0.0793 -0.2099,-0.0793 -0.0901,0 -0.1619,0.0267 -0.2156,0.0799 -0.053,0.0535 -0.0799,0.1243 -0.0799,0.2127zm-0.0434 1.0487c0,0.1294 0.033,0.2304 0.0992,0.3027 0.0662,0.0724 0.1488,0.1083 0.2481,0.1083 0.097,0 0.1773,-0.0347 0.2406,-0.1044 0.0632,-0.0696 0.0953,-0.1699 0.0953,-0.3016 0,-0.1146 -0.0325,-0.207 -0.097,-0.2765 -0.0645,-0.0696 -0.1465,-0.1044 -0.2458,-0.1044 -0.1146,0 -0.2002,0.0399 -0.256,0.1186 -0.0564,0.0793 -0.0844,0.1648 -0.0844,0.2572l0 0.0001z"/>
  <path id="_1_1" class="fil20" d="M62.7545 54.105l0 -0.4357 1.6052 0 0 0.3405c-0.1323,0.1306 -0.2668,0.3176 -0.4043,0.5616 -0.1368,0.2435 -0.2412,0.5029 -0.313,0.7772 -0.0719,0.2748 -0.1072,0.52 -0.1061,0.7362l-0.4528 0c0.0079,-0.3387 0.0776,-0.6836 0.2099,-1.0355 0.1317,-0.3524 0.3079,-0.6666 0.5286,-0.9442l-1.0674 0 -0.0001 -0.0001z"/>
  <path class="fil21 str8" d="M73.9051 104.193l-0.4355 2.6081c1.4236,0.4863 3.5214,0.7674 5.7363,0.7674 2.215,0 4.3178,-0.2811 5.7414,-0.7674m-0.4407 -2.6081l2.036 12.0519c-1.8192,0.3688 -4.506,0.5822 -7.3367,0.5822 -2.8306,0 -5.4983,-0.2133 -7.3175,-0.5822m-9.7671 0l9.767 0 0.367 -2.7882c1.7024,0.8245 4.3017,1.2343 6.9506,1.2343 2.6489,0 5.1632,-0.4097 6.8657,-1.2343l10.5578 0m-0.0001 -1.9787l-10.892 0c-1.5964,0.458 -4.0448,0.7228 -6.5285,0.7228 -2.4836,0 -4.9618,-0.2648 -6.5582,-0.7228l-0.3953 1.9786 -10.134 0m0 -4.4069l10.9529 0 -0.4234 2.4283 -10.5295 0m0 -4.6768l11.3483 0 -0.3953 2.2485c1.5178,0.5472 3.77,0.8636 6.1317,0.8636 2.3616,0 4.6034,-0.3163 6.1212,-0.8636l11.3023 0m-31.9218 -2.2791c0,-3.3541 0,-3.3541 0,0m0 4.6783c0,-3.122 0,-3.122 0,0m0 4.7678c0,-3.5915 0,-3.5915 0,0m4.81 -40.5188l0 2.6489m0 4.6344c0,-3.0027 0,-3.0027 0,0m0 4.721c0,-3.0601 0,-3.0601 0,0m0 4.7226c0,-3.0025 0,-3.0025 0,0m0 4.633c0,-2.9454 0,-2.9454 0,0m0 4.678c0,-2.8626 0,-2.8626 0,0m0 5.0347c0,-3.3541 0,-3.3541 0,0m0 4.6782c0,-3.122 0,-3.122 0,0m0 4.7679c0,-3.5915 0,-3.5915 0,0m4.9025 -40.5188l0 2.6489m0 4.6345c0,-3.0027 0,-3.0027 0,0m0 4.721c0,-3.0601 0,-3.0601 0,0m0 4.7226c0,-3.0025 0,-3.0025 0,0m0 4.6329c0,-2.9454 0,-2.9454 0,0m0 4.678c0,-2.8626 0,-2.8626 0,0m4.9027 -26.038l0 2.6489m0 4.6345c0,-3.0027 0,-3.0027 0,0m0 4.721c0,-3.0601 0,-3.0601 0,0m0 4.7226c0,-3.0025 0,-3.0025 0,0m0 4.633c0,-2.9454 0,-2.9454 0,0m0 4.6779c0,-2.8626 0,-2.8626 0,0m14.695 5.0348c0,-3.3541 0,-3.3541 0,0m0 4.6782c0,-3.122 0,-3.122 0,0m0 4.7679c0,-3.5915 0,-3.5915 0,0m-4.8238 -40.5188l0 2.6489m0 4.6344c0,-3.0027 0,-3.0027 0,0m0 4.721c0,-3.0601 0,-3.0601 0,0m0 4.7226c0,-3.0025 0,-3.0025 0,0m0 4.6329c0,-2.9454 0,-2.9454 0,0m0 4.6781c0,-2.8626 0,-2.8626 0,0m0 5.0346c0,-3.3541 0,-3.3541 0,0m0 4.6783c0,-3.122 0,-3.122 0,0m0 4.7678c0,-3.5915 0,-3.5915 0,0m-5.0613 -40.5188l0 2.6489m0 4.6345c0,-3.0027 0,-3.0027 0,0m0 4.721c0,-3.0601 0,-3.0601 0,0m0 4.7226c0,-3.0025 0,-3.0025 0,0m0 4.6329c0,-2.9454 0,-2.9454 0,0m0 4.678c0,-2.8626 0,-2.8626 0,0m-17.0204 -6.9769c0,-2.9969 0,-2.9969 0,0m0 4.743c0,-3.1416 0,-3.1416 0,0m0 4.6581c0,-3.1171 0,-3.1171 0,0m4.8102 -14.0791c0,-3.0541 0,-3.0541 0,0m0 4.678c0,-2.9969 0,-2.9969 0,0m0 4.743c0,-3.1416 0,-3.1416 0,0m0 4.6581c0,-3.1171 0,-3.1171 0,0m4.9031 -14.0791c0,-3.0541 0,-3.0541 0,0m0 4.678c0,-2.9969 0,-2.9969 0,0m0 4.743c0,-3.1416 0,-3.1416 0,0m14.615 -9.421c0,-3.0541 0,-3.0541 0,0m0 4.678c0,-2.9969 0,-2.9969 0,0m0 4.743c0,-3.1416 0,-3.1416 0,0m0 4.6581c0,-3.1171 0,-3.1171 0,0m-4.8102 -14.0791c0,-3.0541 0,-3.0541 0,0m0 4.678c0,-2.9969 0,-2.9969 0,0m0 4.743c0,-3.1416 0,-3.1416 0,0m0 4.6581c0,-3.1171 0,-3.1171 0,0m-4.9951 -14.0791c0,-3.0541 0,-3.0541 0,0m0 4.678c0,-2.9969 0,-2.9969 0,0m0 4.743c0,-3.1416 0,-3.1416 0,0m0 4.6581c0,-3.1171 0,-3.1171 0,0m4.907 12.0846l10.0867 0m-11.7069 -9.5913l11.7071 0.1477m-31.9215 -2.5462l29.3103 0m-29.0015 -2.4904l28.7173 0m-28.34 -2.2284l27.9622 0m-27.5474 -2.4484l27.1322 0m-26.7435 -2.2934l26.413 0m-26.0167 -2.3382l25.6956 0m-25.2992 -2.3387l24.9092 0m-24.5052 -2.3834l23.8463 0m-23.4424 -2.3834l23.0402 0m-22.6439 -2.3383l22.3612 0m-21.9649 -2.3385l21.5686 0m-21.1387 -2.306l20.7164 0m-17.1761 39.9624c1.8192,0.3689 3.814,0.4562 6.6447,0.4562 2.8306,0 5.2458,-0.1606 7.065,-0.5294m-9.9179 -8.6034c0.2192,-2.9764 0.2192,-2.9764 0,0m-0.3339 4.8287c0.0318,-0.434 0,0 0.156,-2.4139m6.3871 -2.4147c-0.2192,-2.9764 -0.2192,-2.9764 0,0m0.3435 4.7446c-0.0592,-0.9051 -0.1616,-2.3804 -0.1507,-2.3816m-3.4321 -4.4898c0,-3.0025 0,-2.9716 0,0.0309m0 4.602c0,-2.9454 0,-2.9454 0,0m0 4.6781c0,-2.8626 0,-2.8626 0,0m0 -9.2801l0 0 0 0zm-14.6151 -0.7566l0 0 0 0zm0 4.6769l0 0 0 0zm0 4.7667l0 0 0 0.6149 0 -0.6149zm4.81 -33.2325l0 0 0 0zm0 9.4436l0 0 0 0zm0 4.632l0 0 0 0zm0 4.6767l0 0 0 0zm0 5.0366l0 0 0 0zm0 4.6768l0 0 0 0zm0 4.7669l0 0 0 0.6149 0 -0.6149zm4.9027 -33.2325l0 0 0 0zm0 9.4436l0 0 0 0zm0 4.6319l0 0 0 0zm0 4.6768l0 0 0 0zm4.9025 -18.7523l0 0 0 0zm0 9.4436l0 0 0 0zm0 4.6319l0 0 0 0zm0 4.6768l0 0 0 0zm14.695 5.0366l0 0 0 0zm0 4.6767l0 0 0 0zm0 4.7669l0 0 0 0.6149 0 -0.6149zm-4.8238 -33.2325l0 0 0 0zm0 9.4436l0 0 0 0zm0 4.6319l0 0 0 0zm0 4.6768l0 0 0 0zm0 5.0366l0 0 0 0zm0 4.6768l0 0 0 0zm0 4.7669l0 0 0 0.6149 0 -0.6149zm-5.0612 -33.2325l0 0 0 0zm0 9.4436l0 0 0 0zm0 4.6319l0 0 0 0zm0 4.6768l0 0 0 0zm-17.0205 -6.9702l0 0 0 0zm0 4.7417l0 0 0 0zm0 4.6569l0 0 0 0zm0 2.6082l0 2.2136 0 -2.2136zm0 2.2485l0 0 0 0zm0 2.4283l0 2.0351 0 -2.0351zm0 2.0686l0 0zm4.8102 -35.1787l0 0 0 2.2693 0 -2.2693zm0 11.7496l0 0 0 0zm0 4.677l0 0 0 0zm0 4.7417l0 0 0 0zm0 4.6568l0 0 0 0zm0 2.6083l0 2.2136 0 -2.2136zm0 2.2484l0 0 0 0zm0 2.4283l0 2.0351 0 -2.0351zm0 2.0687l0 0zm0 -28.1959l0 -2.3384 0 2.3384 0 0zm4.9032 -6.983l0 0 0 2.2693 0 -2.2693zm0 11.7497l0 0 0 0zm0 4.6769l0 0 0 0zm0 4.7417l0 0 0 0zm0 -14.1853l0 -2.3384 0 2.3384 0 0zm14.615 4.7667l0 0 0 0zm0 4.6769l0 0 0 0zm0 4.7417l0 0 0 0zm0 4.6569l0 0 0 0zm0 2.6082l0 2.2136 0 -2.2136zm0 2.2484l0 0 0 0zm0 2.4283l0 2.0351 0 -2.0351zm0 2.0687l0 0zm-4.8102 -35.1788l0 0 0 2.2693 0 -2.2693zm0 11.7497l0 0 0 0zm0 4.6769l0 0 0 0zm0 4.7417l0 0 0 0zm0 4.6569l0 0 0 0zm0 2.6082l0 2.2136 0 -2.2136zm0 2.2484l0 0 0 0zm0 2.4283l0 2.0351 0 -2.0351zm0 2.0687l0 0zm0 -28.1959l0 -2.3384 0 2.3384 0 0zm-4.9952 -6.9829l0 0 0 2.2693 0 -2.2693zm0 11.7496l0 0 0 0zm0 4.6769l0 0 0 0zm0 4.7418l0 0 0 0zm0 4.6569l0 0 0 0zm0 -18.8423l0 -2.3384 0 2.3384 0 0zm-5.2849 24.3334l0 0 0 0zm-0.3315 4.7981l0 0m0 0l0.0598 0.0082m6.4857 -4.8063l0 0 0 0zm-3.3557 2.5165l0.1141 -0.011 -0.1141 0.011zm0.114 4.6659l0 0 0 0z"/>
  <path class="fil22" d="M80.1435 95.3729c0.9722,1.0592 0.9027,3.0314 1.1222,3.6173 0.1249,-0.6679 0.1898,-1.5304 0.1474,-2.7183 1.1396,1.0328 1.6834,3.6412 1.6834,3.6412 0.0616,-0.2637 0.1546,-0.5346 0.3052,-0.8185 1.9224,2.7096 0.7235,3.656 0.2171,4.2184 1.0852,-0.5976 0.4703,-0.8085 1.6458,-2.3377 0.4829,5.394 -6.8771,5.5961 -10.7249,4.0603 -1.1555,-0.4612 -1.6734,-2.8473 -0.9727,-3.9211 1.5266,0.6792 1.5453,0.7331 2.4298,3.0155 0.0846,-0.0094 -1.8533,-3.9713 -1.2149,-4.7555 0.3163,0.188 0.536,0.4749 0.6935,0.7594 -0.2255,-0.6482 -0.2914,-1.5055 0.0602,-2.7733 1.1537,0.097 0.8717,0.767 1.449,1.0469 -1.167,-1.6049 -0.4784,-3.0376 -0.2517,-3.3378 0.3303,1.0789 1.0348,1.8766 1.1885,1.6576 0.0526,-0.9467 0.3617,-1.8178 0.8639,-2.4117 0.635,0.4595 1.0313,2.1082 1.1105,2.6117 0.1366,-0.4161 0.2289,-0.9185 0.2475,-1.5543l0 -0.0001 0.0002 0z"/>
  <path class="fil4 str9" d="M81.1949 104.104c2.4777,-2.0741 1.3021,-3.3045 2.2064,-5.0095 1.9224,2.7096 0.7235,3.656 0.2171,4.2184 1.0852,-0.5976 0.4703,-0.8085 1.6458,-2.3377 0.4829,5.394 -6.8771,5.5961 -10.7249,4.0603 -1.1555,-0.4612 -1.6734,-2.8473 -0.9727,-3.9211 1.5266,0.6792 1.5453,0.7331 2.4298,3.0155 0.0846,-0.0094 -1.8533,-3.9713 -1.2149,-4.7555 0.9204,0.5471 1.0222,1.9305 1.1593,1.6605m7.1553 -1.1218c0,0 -0.5438,-2.6085 -1.6834,-3.6412 0.173,4.8331 -1.4345,4.2809 -1.61,7.1401m-1.8814 -6.6849c-0.1537,0.219 -0.8583,-0.5787 -1.1885,-1.6576 -0.2267,0.3002 -0.9153,1.733 0.2517,3.3378 -0.5774,-0.2799 -0.2953,-0.95 -1.449,-1.0469 -1.0195,3.6754 1.4704,3.9004 1.185,5.5858m3.1537 -5.9551c0.1675,0.5834 -0.2547,-2.072 -1.089,-2.6756 -0.8923,1.0553 -1.1752,2.9864 -0.4921,4.6612m2.9722 0.0134c-0.2195,-0.586 -0.15,-2.5581 -1.1222,-3.6173 -0.1189,4.0676 -3.2555,2.672 -1.6917,8.1962"/>
  <path class="fil22 str10" d="M100.304 48.5096c0,0 1.0741,-1.1595 0.8325,-2.8736 -1.1192,1.3673 -3.3901,2.2687 -3.3901,2.2687 0,0 -2.0674,0.4537 -2.4196,3.1255 -1.6118,-2.571 -1.4512,-2.9744 -0.9294,-5.4446 -1.5694,1.4619 -1.3612,1.603 -1.8015,2.6719 -1.142,2.7728 -0.2575,3.9501 -4.3017,5.9162 0.9301,-2.6703 1.5143,-3.2054 0.1204,-4.9876 -1.2635,-1.6155 -1.1974,-2.1448 -1.7763,-3.3485 -1.1556,4.6884 1.6212,5.3988 -3.368,7.6675 -0.4129,-1.7393 0.429,-1.9203 -0.5134,-3.1303 -0.9423,-1.2099 -0.948,-2.1679 -0.5729,-4.991 -1.7592,2.7223 -1.4833,4.2094 -1.484,5.8731 -0.0006,1.6636 -2.3001,1.336 -4.2471,4.3104 -1.947,2.9743 -1.2118,5.3944 -0.9171,6.7554 0.2947,1.3611 0.2045,2.7692 -3.3265,5.6427 -3.531,2.8736 -2.2801,7.7324 -2.2801,7.7324l18.8577 -0.0306c0,0 2.4008,-2.0131 2.3586,-3.7242 -0.0421,-1.7111 0.8936,-2.6171 2.6739,-3.8249 1.7803,-1.2078 2.9309,-2.2144 3.3097,-4.7308 0.3789,-2.5164 2.1412,-4.9321 5.3505,-6.3413 3.2092,-1.4092 4.4603,-5.7373 4.5513,-6.3413 0.091,-0.604 0.4698,-3.1203 0.4698,-3.1203 0,0 -1.6293,3.523 -5.3774,4.5296 -3.7481,1.0066 -3.3636,1.1072 -4.1842,1.9124l0.2041 -1.7864c0.2041,-1.7865 2.1609,-3.7305 2.1609,-3.7305l0.0001 0 -0.0002 0.0001z"/>
  <path class="fil4 str10" d="M83.2708 53.5052c-4.6525,4.0748 -1.2795,7.192 -3.0375,10.4812"/>
  <path class="fil22 str10" d="M84.9962 75.6675l-11.2203 0c-1.7711,-4.3355 -0.7033,-4.6231 3.3205,-9.1098 0.6835,2.5963 0.9307,4.1086 1.483,5.4194 0.5126,-3.0944 -0.1271,-6.2321 3.5876,-8.6386 2.9001,-1.8788 3.2015,-2.2092 4.134,-3.8134 1.0605,4.739 -1.2851,4.3858 -3.1203,8.4441 4.8842,-6.323 4.6603,-3.7134 6.7886,-5.2138 0.9081,-0.5326 0.7161,-3.1088 3.9234,-5.5241 -0.0886,1.2015 -1.0043,2.0295 -1.0443,4.016 -0.1155,5.7288 -4.0743,5.6532 -5.6055,9.1167 -0.0284,1.4977 -0.0985,2.8184 -2.2467,5.3037l0 -0.0001 0 -0.0001z"/>
  <path class="fil4 str10" d="M88.2947 54.1738c0,0 -5.9423,4.1467 -4.0585,7.7611"/>
  <path class="fil4 str10" d="M95.3274 51.03c0.673,6.9822 -6.0808,3.3775 -6.0324,10.3599"/>
  <path class="fil4 str10" d="M97.9393 54.0264c0,0 -2.8709,2.3726 -2.6392,6.809"/>
  <path class="fil4 str10" d="M87.243 70.3639c0,0 -0.7546,-0.6303 -0.4707,-2.8484 -2.8946,1.966 -6.5284,4.0285 -5.8,8.1521"/>
  <path class="fil0 str11" d="M56.9382 74.9737l0.03 -0.7655c-0.1051,-1.0182 1.6938,-1.0181 1.5886,0l0.03 0.7655m-1.928 7.1014l-0.6396 16.2615c0.3871,1.5993 3.0997,1.5993 3.4868,0l-0.6397 -16.2615m-6.0638 0l2.8123 0 1.0439 0 2.2075 0 1.2131 0 2.8123 0c0.4173,0 1.2004,-0.5128 1.2129,-1.0295 0.0402,-1.6746 0.0402,-3.3676 0,-5.0423 -0.0124,-0.5167 -0.7955,-1.0295 -1.2129,-1.0295l-2.8123 0 -1.4925 0 -1.6488 0 -1.3232 0 -2.8123 0c-0.4173,0 -1.2004,0.5128 -1.2129,1.0295 -0.0402,1.6747 -0.0402,3.3677 0,5.0423 0.0124,0.5166 0.7955,1.0295 1.2129,1.0295z"/>
  <path class="fil0 str11" d="M98.8323 74.9737l0.03 -0.7655c-0.1051,-1.0182 1.6938,-1.0181 1.5886,0l0.03 0.7655m-1.928 7.1014l-0.6396 16.2615c0.3871,1.5993 3.0997,1.5993 3.4868,0l-0.6397 -16.2615m-6.0637 0l2.8123 0 1.0439 0 2.2075 0 1.2131 0 2.8123 0c0.4173,0 1.2004,-0.5128 1.2129,-1.0295 0.0402,-1.6746 0.0402,-3.3676 0,-5.0423 -0.0124,-0.5167 -0.7955,-1.0295 -1.2129,-1.0295l-2.8123 0 -1.4925 0 -1.6488 0 -1.3232 0 -2.8123 0c-0.4173,0 -1.2004,0.5128 -1.2129,1.0295 -0.0402,1.6747 -0.0402,3.3677 0,5.0423 0.0124,0.5166 0.7955,1.0295 1.2129,1.0295z"/>
  <path class="fil4 str3" d="M96.622 116.77l0 -12.7902 -2.4969 0 -4.7932 -28.2818 -19.8192 0 -4.7932 28.2818 -2.4966 0 0 12.796m34.3991 -0.0058z"/>
 </g>
</svg>
