<!-- Created with Inkscape (http://www.inkscape.org/) -->
<svg xmlns:rdf="http://www.w3.org/1999/02/22-rdf-syntax-ns#" xmlns="http://www.w3.org/2000/svg" height="500" width="395" version="1.0" xmlns:cc="http://creativecommons.org/ns#" xmlns:xlink="http://www.w3.org/1999/xlink" xmlns:dc="http://purl.org/dc/elements/1.1/">
 <defs>
  <style type="text/css"/>
  <style type="text/css"/>
  <style type="text/css"/>
  <style type="text/css"/>
  <style type="text/css"/>
  <style type="text/css"/>
  <style type="text/css"/>
  <style type="text/css"/>
  <radialGradient id="radialGradient3931" gradientUnits="userSpaceOnUse" cy="159.3" cx="197.14" gradientTransform="matrix(1.4816308,0,0,1.6930772,-94.946317,-128.87193)" r="178.35">
   <stop stop-color="#F06" offset="0"/>
   <stop stop-color="#dc143c" offset="1"/>
  </radialGradient>
  <linearGradient id="linearGradient4036" y2="143.5" gradientUnits="userSpaceOnUse" x2="393.33" y1="83.024" x1="332.85">
   <stop stop-color="#ffeb00" offset="0"/>
   <stop stop-color="#d4aa00" offset="1"/>
  </linearGradient>
  <linearGradient id="linearGradient3932" y2="439.95" gradientUnits="userSpaceOnUse" x2="85.063" y1="462.45" x1="119.5">
   <stop stop-color="#ffeb00" offset="0"/>
   <stop stop-color="#d4aa00" offset="1"/>
  </linearGradient>
  <linearGradient id="linearGradient3940" y2="418.39" gradientUnits="userSpaceOnUse" x2="311.33" y1="460.58" x1="264.27">
   <stop stop-color="#ffeb00" offset="0"/>
   <stop stop-color="#d4aa00" offset="1"/>
  </linearGradient>
  <linearGradient id="linearGradient3987" y2="144.44" gradientUnits="userSpaceOnUse" x2="-0.1365" y1="78.272" x1="66.033">
   <stop stop-color="#ffeb00" offset="0"/>
   <stop stop-color="#d4aa00" offset="1"/>
  </linearGradient>
  <linearGradient id="linearGradient3995" y2="360.69" gradientUnits="userSpaceOnUse" x2="394.27" y1="146.94" x1="394.27">
   <stop stop-color="#d4aa00" offset="0"/>
   <stop stop-color="#ffeb00" offset="1"/>
  </linearGradient>
  <linearGradient id="linearGradient4003" y2="143.61" gradientUnits="userSpaceOnUse" x2="0.0000030064" y1="360.69" x1="0.0000030064">
   <stop stop-color="#ffeb00" offset="0"/>
   <stop stop-color="#d4aa00" offset="1"/>
  </linearGradient>
 </defs>
 <metadata>
  <rdf:RDF>
   <cc:Work rdf:about="">
    <dc:format>image/svg+xml</dc:format>
    <dc:type rdf:resource="http://purl.org/dc/dcmitype/StillImage"/>
    <dc:title/>
   </cc:Work>
  </rdf:RDF>
 </metadata>
 <path fill="#800080" d="m243.67,284.67c-1.3977,0-2.5311,1.1334-2.5311,2.5311v2.5311h10.124v5.0622h-15.187v-7.5933c0.0143-4.13,3.4002-7.5933,7.5933-7.5933,1.3965,0.00095,2.5311-1.1334,2.5311-2.5311,0-1.3965-1.1346-2.5299-2.5311-2.5299h-7.5933l5.0622-5.0622h2.5311c4.1288,0.0143,7.5933,3.4002,7.5933,7.5921,0,4.1931-3.4014,7.5933-7.5933,7.5933zm58.213-15.185,0,25.31-5.0622,0,0-20.248zm-229.75-0.00095,5.0622,0,0,20.249,10.124,0,0,5.0622-15.186,0zm201.91-5.0622c-9.7827,0-17.716,7.935-17.716,17.718,0,9.7839,7.9338,17.718,17.716,17.718,9.7839,0,17.718-7.9338,17.718-17.718,0-9.7827-7.9338-17.718-17.718-17.718zm12.655,17.718c0,6.9885-5.667,12.655-12.655,12.655-6.9873,0-12.655-5.667-12.655-12.655,0-6.9873,5.6682-12.655,12.655-12.655,6.9885,0,12.655,5.6682,12.655,12.655zm-88.014-7.5921c2.7954,0,5.0622,2.2668,5.0622,5.0622v5.061c0,2.7954-2.2668,5.0622-5.0622,5.0622h-5.0622v-15.185zm0,20.248c5.5908,0,10.124-4.5336,10.124-10.124v-5.061c0-5.5908-4.5336-10.124-10.124-10.124h-10.124v25.31zm-20.249-25.31,5.0624,0,0,25.31-5.0624,0zm-86.054,0,15.186,0,0,5.0622-10.124,0,0,5.061,10.124,0,0,5.0622-10.124,0,0,5.0622,10.124,0,0,5.0622-15.186,0zm75.931,0,5.0621,0,0,25.31-5.0621,0-10.124-15.89,0,15.89-5.0621,0,0-25.31,5.0621,0,10.124,15.89zm-43.026,5.061,5.0608,0c4.1928,0,7.5933,3.4002,7.5933,7.5933s-3.4635,7.579-7.5933,7.5933h-5.0608v-5.0622h5.0608c1.3976,0,2.5311-1.1334,2.5311-2.5311s-1.1335-2.5311-2.5311-2.5311h-5.0608zm5.0608,25.311c9.7835,0,17.718-7.9338,17.718-17.718,0-9.7827-7.934-17.718-17.718-17.718-9.7834,0-17.718,7.935-17.718,17.718,0,9.7839,7.9341,17.718,17.718,17.718zm-12.66-17.72c0-6.9873,5.6672-12.655,12.655-12.655,6.9881,0,12.655,5.6682,12.655,12.655,0,6.9885-5.6672,12.655-12.655,12.655-6.9881,0-12.655-5.667-12.655-12.655zm196.85,2.5311-7.5933,0,0-5.0622,7.5933,0c1.3977,0.00096,2.5311-1.1334,2.5311-2.5311,0-1.3965-1.1334-2.5299-2.5311-2.5299h-7.5933l5.0622-5.0622h2.5311c4.13,0.0143,7.5933,3.4002,7.5933,7.5921,0,1.9454-0.73218,3.7193-1.9346,5.0634,1.2024,1.3429,1.9346,3.1168,1.9346,5.061,0,4.1931-3.4633,7.579-7.5933,7.5933h-7.5933v-5.0622h7.5933c1.3977,0,2.5311-1.1334,2.5311-2.5311s-1.1334-2.5311-2.5311-2.5311z"/>
 <g transform="matrix(0.54741952,0,0,-0.54741952,-16.182995,508.87083)"></g>
 <g transform="matrix(0.54741952,0,0,-0.54741952,-16.182995,508.87083)"></g>
 <g transform="matrix(0.54741952,0,0,-0.54741952,-16.182995,508.87083)"></g>
 <g transform="matrix(0.54741952,0,0,-0.54741952,-16.182995,508.87083)"></g>
 <g transform="matrix(0.54741952,0,0,-0.54741952,-16.182995,508.87083)"></g>
 <g transform="matrix(0.54741952,0,0,-0.54741952,-16.182995,508.87083)"></g>
 <g transform="matrix(0.54741952,0,0,-0.54741952,-16.182995,508.87083)"></g>
 <g transform="matrix(0.54741952,0,0,-0.54741952,-16.182995,508.87083)"></g>
 <g transform="matrix(0.54741952,0,0,-0.54741952,-16.182995,508.87083)"></g>
 <g transform="matrix(0.54741952,0,0,-0.54741952,-16.182995,508.87083)"></g>
 <g transform="matrix(0.54741952,0,0,-0.54741952,-16.182995,508.87083)"></g>
 <g transform="matrix(0.54741952,0,0,-0.54741952,-16.182995,508.87083)"></g>
 <g transform="matrix(0.54741952,0,0,-0.54741952,-16.182995,508.87083)"></g>
 <g transform="matrix(0.54741952,0,0,-0.54741952,-16.182995,508.87083)"></g>
 <path d="m197.14,500,78.242-37.165c-5.2426-4.0164-8.6233-10.34-8.6233-17.453,0-12.133,9.8397-21.973,21.973-21.973,10.072,0,18.561,6.7811,21.156,16.024l84.103-77.949c-30.859-25.953-50.48-64.842-50.48-108.31,0-43.602,19.74-82.596,50.764-108.55l-86.11-84.736c-27.008,30.948-66.737,50.507-111.03,50.507s-84.021-19.559-111.03-50.507l-86.1,84.727c31.024,25.96,50.764,64.95,50.764,108.55,0,43.469-19.621,82.358-50.48,108.31l84.105,77.95c2.5938-9.2444,11.084-16.025,21.156-16.025,12.133,0,21.973,9.8397,21.973,21.973,0,7.1129-3.3808,13.438-8.6233,17.453l78.25,37.18z" fill-rule="evenodd" fill-opacity="0.97254902" fill="#d4aa00"/>
 <path fill-rule="evenodd" fill="url(#linearGradient3995)" d="m394.27,144.62c-31.024,25.954-50.764,64.948-50.764,108.55,0,43.469,19.621,82.358,50.48,108.31l-20.296-0.009c-27.233-27.981-44.017-66.183-44.017-108.3,0-42.414,17.017-80.855,44.588-108.89l20.009,0.33551z"/>
 <path fill-rule="evenodd" fill="url(#linearGradient4003)" d="m20.009,144.29c27.571,28.031,44.588,66.472,44.588,108.89,0,42.12-16.783,80.322-44.017,108.3l-20.296,0.009c30.859-25.96,50.48-64.85,50.48-108.32,0-43.6-19.74-82.59-50.764-108.55l20.009-0.33z"/>
 <path fill-rule="evenodd" fill="#d4aa00" d="M275.38,462.83,197.14,500v-15.281l57.805-27.457,20.437,5.5732zm118.61-101.35-84.103,77.949,2.3828-21.028,61.425-56.93,20.296,0.009z"/>
 <path fill-rule="evenodd" fill="url(#linearGradient3987)" d="M85.783,79.563,20.009,144.29,0.0000030064,144.62,86.105,59.894,85.783,79.563z"/>
 <path fill-rule="evenodd" fill="url(#linearGradient4036)" d="M374.26,144.29,308.49,79.562,308.16,59.894,394.27,144.62,374.26,144.29z"/>
 <path fill-rule="evenodd" fill="url(#linearGradient3940)" d="m309.88,439.43c-2.595-9.2431-11.084-16.024-21.156-16.024-12.133,0-21.973,9.8397-21.973,21.973,0,7.1129,3.3808,13.436,8.6233,17.453l-20.437-5.5732c-1.3067-3.7175-2.0204-7.7156-2.0204-11.88,0-19.772,16.035-35.806,35.807-35.806,9.0113,0,17.244,3.332,23.538,8.8295l-2.3828,21.028z"/>
 <path fill-rule="evenodd" fill="url(#linearGradient3932)" d="m82.005,418.41c6.2943-5.4976,14.528-8.8295,23.54-8.8295,19.772,0,35.807,16.034,35.807,35.806,0,4.164-0.71373,8.1622-2.0204,11.881l-20.437,5.572c5.2426-4.0152,8.6233-10.34,8.6233-17.453,0-12.133-9.8397-21.973-21.973-21.973-10.072,0-18.562,6.7811-21.156,16.025l-2.384-21.029z"/>
 <path fill-rule="evenodd" fill="#ffeb00" d="m308.49,79.562c-28.937,27.671-68.161,44.671-111.35,44.671-43.19,0-82.413-16.999-111.35-44.67l0.32209-19.67c27.008,30.948,66.737,50.507,111.03,50.507s84.021-19.559,111.03-50.507l0.32087,19.668z"/>
 <path fill-rule="evenodd" fill="#d4aa00" d="m20.58,361.48,61.425,56.93,2.384,21.029-84.104-77.95,20.296-0.009zm118.75,95.788,57.804,27.456,0,15.281-78.241-37.165,20.437-5.572z"/>
 <path d="m197.14,484.72,57.805-27.457c-1.3067-3.7175-2.0204-7.7156-2.0204-11.88,0-19.772,16.035-35.806,35.807-35.806,9.0113,0,17.244,3.332,23.538,8.8295l61.425-56.93c-27.233-27.981-44.017-66.183-44.017-108.3,0-42.414,17.017-80.855,44.588-108.89l-65.78-64.718c-28.937,27.671-68.161,44.671-111.35,44.671-43.19,0-82.413-16.999-111.35-44.67l-65.781,64.73c27.571,28.031,44.588,66.472,44.588,108.89,0,42.12-16.783,80.322-44.017,108.3l61.425,56.93c6.2943-5.4976,14.528-8.8295,23.54-8.8295,19.772,0,35.807,16.034,35.807,35.806,0,4.164-0.71373,8.1622-2.0204,11.881l57.804,27.456z" fill-rule="evenodd" stroke="#7f0000" stroke-width="2.44026589000000000" fill="url(#radialGradient3931)"/>
 <g transform="translate(-379.99996,0)">
  <path d="m603.31,319.93c36.7,3.2844,43.062-71.194,97.109-64.237" stroke="#806600" stroke-miterlimit="4" stroke-dasharray="none" stroke-width="1" fill="none"/>
  <path d="m691.6,256.96-114.47-114.58-114.47,114.58-2.5548-2.5414,114.48-114.59,5.0925,0,114.48,114.59-2.5548,2.5414z" fill-rule="evenodd" stroke="#806600" stroke-miterlimit="4" stroke-dasharray="none" stroke-width="1" fill="#ffeb00"/>
  <path d="m448.37,264.34c28.869-3.3368,53.775,14.592,55.992,47.17h-1.0114v0.23059c8.106,2.4633,11.059,6.947,16.307,12.915,6.7323,7.6546,14.516,13.05,25.991,13.272,6.0173,0.11712,12.187-1.2201,18.439-3.565,9.3798-3.5174,15.819-3.5174,25.199,0,6.2516,2.3449,12.421,3.6821,18.439,3.565,11.475-0.22205,19.259-5.6171,25.991-13.272,5.084-5.7818,9.5506-10.588,17.213-12.915v-0.23059h-1.0114c2.2168-32.578,27.123-50.507,55.992-47.17v-10.905h-29.923v3.6272c-15.223,6.4614-25.499,20.515-35.109,33.66-9.6543,13.207-18.609,25.45-31.131,27.276,0.86136-1.6702,1.2201-3.665,1.0663-5.5805v-0.007c-0.0134-0.17081-0.0305-0.33552-0.0488-0.49047-0.66127-5.3463-5.0901-8.7941-10.12-9.603-3.3795-0.54414-6.8701,0.10981-9.819,1.8374-10.367,2.3962-17.001,2.3962-27.368,0-2.9489-1.7276-6.4394-2.3815-9.819-1.8374-5.0303,0.8089-9.4591,4.2568-10.12,9.603-0.0183,0.15495-0.0354,0.31966-0.0488,0.49047v0.007c-0.15373,1.9155,0.20497,3.9103,1.0663,5.5805-12.521-1.8252-21.477-14.068-31.132-27.276-9.6091-13.145-19.886-27.199-35.108-33.66v-3.6272h-29.923v10.905z" fill-rule="evenodd" stroke="#806600" stroke-miterlimit="4" stroke-dasharray="none" stroke-width="1" fill="#C93"/>
  <path d="m602.52,317.91c2.9245,0.24157,4.4483-2.1595,4.2104-5.1682-0.009-0.10126-0.0195-0.21107-0.0342-0.32941-0.43068-3.4808-3.4845-5.55-6.6944-6.0661-3.3112-0.53072-6.7872,0.52096-9.2187,2.9513-3.698,3.6968-4.147,9.7434-0.91504,13.868,2.6426,3.3734,6.6859,4.5459,10.745,4.5044,10.708-0.10981,21.028-6.9128,28.575-13.907h9.2566l4.1299-2.2571h8.3525v0.23059c-4.1445,1.2591-7.4655,3.3429-10.568,5.6427h-12.404c-7.6253,7.03-16.33,14.432-27.215,14.428-3.0282-0.002-6.0686-0.58441-8.7539-1.8752-11.514-2.4108-18.002-2.4438-29.696,0-2.6853,1.2908-5.7257,1.8728-8.7539,1.8752-10.884,0.004-19.589-7.3984-27.215-14.428h-12.404c-3.1038-2.2998-6.4236-4.3836-10.568-5.6427v-0.23059h8.3525l4.1299,2.2571h9.2566c7.5472,6.9946,17.866,13.798,28.575,13.907,4.0591,0.0415,8.1024-1.131,10.745-4.5044,3.2319-4.125,2.7829-10.172-0.91504-13.868-2.4316-2.4304-5.9075-3.482-9.2187-2.9513-3.21,0.51608-6.2638,2.5853-6.6944,6.0661-0.0146,0.11834-0.0256,0.22815-0.0342,0.32941-0.23791,3.0086,1.2859,5.4097,4.2104,5.1682-0.5356-1.3848-0.41238-2.9001,0.73936-3.8066,1.4482-1.1408,3.9237-0.88698,4.8936,0.85038,0.72715,1.303,0.60637,3.1892-0.20131,4.5435-3.8139,6.3845-18.985,1.181-24.058-1.9802-8.4501-5.2658-15.356-14.708-22.637-24.668-9.2492-12.652-19.141-26.182-33.583-32.367-9.3554-4.0067-18.624-3.2868-28.541-3.2868v-3.7639h29.923v3.6272c15.223,6.4614,25.499,20.515,35.108,33.66,9.6555,13.207,18.611,25.45,31.132,27.276-0.86135-1.6702-1.22-3.665-1.0663-5.5805v-0.007c0.0134-0.17081,0.0305-0.33552,0.0488-0.49047,0.66127-5.3463,5.0901-8.7941,10.12-9.603,3.3795-0.54414,6.8701,0.10981,9.819,1.8374,10.367,2.3962,17.001,2.3962,27.368,0,2.9489-1.7276,6.4394-2.3815,9.819-1.8374,5.0303,0.8089,9.4591,4.2568,10.12,9.603,0.0183,0.15495,0.0354,0.31966,0.0488,0.49047v0.007c0.15373,1.9155-0.20497,3.9103-1.0663,5.5805,12.521-1.8252,21.477-14.068,31.131-27.276,9.6104-13.145,19.887-27.199,35.109-33.66v-3.6272h29.923v3.7639c-9.9178,0-19.185-0.71984-28.541,3.2868-14.442,6.1844-24.334,19.715-33.583,32.367-7.1007,9.7141-13.844,18.935-22.012,24.271-4.4312,2.8952-20.834,8.821-24.683,2.3779-0.80768-1.3543-0.92846-3.2405-0.20131-4.5435,0.96994-1.7374,3.4442-1.9911,4.8936-0.85038,1.1517,0.9065,1.275,2.4218,0.73936,3.8066zm-15.317,8.4623c-4.7106-5.2743-4.7302-13.435-0.27085-18.896-5.4097,1.4994-14.177,1.5202-19.589,0,4.4593,5.461,4.4398,13.622-0.27085,18.896,5.611-1.2713,14.522-1.2994,20.131,0z" fill-rule="evenodd" stroke="#806600" stroke-miterlimit="4" stroke-dasharray="none" stroke-width="0.5" fill="#ffeb00"/>
  <path d="m657.65,269.14,7.2703,7.8096" stroke="#806600" stroke-miterlimit="4" stroke-dasharray="none" stroke-width="1" fill="none"/>
  <path d="m641.03,289.43,11.686,7.2898" stroke="#806600" stroke-miterlimit="4" stroke-dasharray="none" stroke-width="1" fill="none"/>
  <path d="m684.96,253.43c0-2.0277,4.6094-2.0277,4.6094,0v11.229c0.31111,2.1912-3.9249,2.8025-4.6094,0.61247v-11.842z" fill-rule="evenodd" stroke="#806600" stroke-miterlimit="4" stroke-dasharray="none" stroke-width="1" fill="#ffeb00"/>
  <path d="m694.64,253.43c-0.16227-2.3547,4.4459-2.3535,4.6094,0v10.633c0,2.0277-4.6094,2.029-4.6094,0v-10.633z" fill-rule="evenodd" stroke="#806600" stroke-miterlimit="4" stroke-dasharray="none" stroke-width="1" fill="#ffeb00"/>
  <path d="m655.78,270.88c-1.5873-1.6227,2.0887-5.1023,3.7395-3.4808l7.2715,7.8108c1.619,1.6239-2.1217,5.1035-3.7407,3.4796l-7.2703-7.8096z" fill-rule="evenodd" stroke="#806600" stroke-miterlimit="4" stroke-dasharray="none" stroke-width="1" fill="#ffeb00"/>
  <path d="m639.68,291.6c-1.8337-1.4555,0.94798-5.633,2.8232-4.219l11.074,6.9226c2.179,1.2725-0.0342,5.8563-2.212,4.5862l-11.686-7.2898z" fill-rule="evenodd" stroke="#806600" stroke-miterlimit="4" stroke-dasharray="none" stroke-width="1" fill="#ffeb00"/>
  <path d="m468.4,253.43c0-2.0277-4.6094-2.0277-4.6094,0v11.229c-0.31111,2.1912,3.9249,2.8025,4.6094,0.61247v-11.842z" fill-rule="evenodd" stroke="#806600" stroke-miterlimit="4" stroke-dasharray="none" stroke-width="1" fill="#ffeb00"/>
  <path d="m458.72,253.43c0.16227-2.3547-4.4459-2.3535-4.6094,0v10.633c0,2.0277,4.6094,2.029,4.6094,0v-10.633z" fill-rule="evenodd" stroke="#806600" stroke-miterlimit="4" stroke-dasharray="none" stroke-width="1" fill="#ffeb00"/>
  <path d="m497.59,270.88c1.5873-1.6227-2.0887-5.1023-3.7407-3.4808l-7.2703,7.8108c-1.619,1.6239,2.1217,5.1035,3.7395,3.4796l7.2715-7.8096z" fill-rule="evenodd" stroke="#806600" stroke-miterlimit="4" stroke-dasharray="none" stroke-width="1" fill="#ffeb00"/>
  <path d="m513.69,291.6c1.8337-1.4555-0.94798-5.633-2.8232-4.219l-11.074,6.9226c-2.179,1.2725,0.0342,5.8563,2.212,4.5862l11.686-7.2898z" fill-rule="evenodd" stroke="#806600" stroke-miterlimit="4" stroke-dasharray="none" stroke-width="1" fill="#ffeb00"/>
  <path d="m593.62,153.52,0,61.869-16.756,16.756-16.756-16.756,0-61.869,16.756,16.756,16.756-16.756z" fill-rule="evenodd" stroke="#806600" stroke-miterlimit="4" stroke-dasharray="none" stroke-width="1" fill="#C93"/>
  <path d="m569.44,330.51c5.7526-0.32941,11.523-0.99068,17.258,1.4421,14.301,6.0673,28.144,7.1824,40.612-2.1802" stroke="#806600" stroke-miterlimit="4" stroke-dasharray="none" stroke-width="1" fill="none"/>
  <path d="m590.14,331.96c5.9795,2.2473,11.85,3.5284,17.531,3.4174,9.9398-0.19399,18.683-4.6984,25.255-11.411,2.0082-2.0509,3.7761-4.2531,5.844-6.4138h0.77962c-2.2168,2.5072-3.842,4.8338-5.838,7.1032-6.7323,7.6558-14.516,13.05-25.991,13.272-6.0173,0.11712-12.187-1.2201-18.439-3.565-9.3798-3.5174-15.819-3.5174-25.199,0-6.2516,2.3449-12.421,3.6821-18.439,3.565-11.475-0.22205-19.259-5.6159-25.991-13.272-1.996-2.2693-3.6211-4.5959-5.838-7.1032h0.77962c2.068,2.1607,3.8358,4.3629,5.8428,6.4138,6.5736,6.7127,15.317,11.217,25.256,11.411,5.6806,0.11102,11.551-1.17,17.531-3.4174,7.7107-2.8952,19.204-2.8952,26.914,0z" fill-rule="evenodd" stroke="#806600" stroke-miterlimit="4" stroke-dasharray="none" stroke-width="0.5" fill="#ffeb00"/>
  <path d="m593.62,168.4-16.756,16.756-16.756-16.756m33.512,12.374-16.756,16.756-16.756-16.756m33.512,12.375-16.756,16.756-16.756-16.756m33.512,12.374-16.756,16.756-16.756-16.756" stroke="#ffeb00" stroke-miterlimit="4" stroke-dasharray="none" stroke-width="2" fill="none"/>
  <path d="m593.62,165.89-16.755,16.756-16.756-16.756m33.511,12.374-16.755,16.756-16.756-16.756m33.511,12.374-16.755,16.756-16.756-16.756m33.511,12.374-16.755,16.756-16.756-16.756" stroke="#806600" stroke-miterlimit="4" stroke-dasharray="none" stroke-width="2" fill="none"/>
  <path d="m560.1,214.1,0,3.97,16.756,16.756,16.756-16.756,0-4.3166" stroke="#ffeb00" stroke-miterlimit="4" stroke-dasharray="none" stroke-width="2" fill="none"/>
  <path d="m593.62,153.52,0,61.869-16.756,16.756-16.756-16.756,0-61.869,16.756,16.756,16.756-16.756z" stroke="#806600" stroke-miterlimit="4" stroke-dasharray="none" stroke-width="2" fill="none"/>
  <path d="m578.67,139.83,0,275.66-3.6126,0,0-275.66,3.6126,0z" fill-rule="evenodd" stroke="#806600" stroke-miterlimit="4" stroke-dasharray="none" stroke-width="1" fill="#ffeb00"/>
  <path d="m576.75,442.5,20.624-59.703-20.624,16.016-20.625-16.016,20.625,59.703z" fill-rule="evenodd" stroke="#806600" stroke-miterlimit="4" stroke-dasharray="none" stroke-width="1" fill="#ffd300"/>
  <path d="m576.75,442.5,20.624-59.703-20.624,16.016-20.625-16.016,20.625,59.703z" fill-rule="evenodd" stroke="#806600" stroke-miterlimit="4" stroke-dasharray="none" stroke-width="1" fill="#ffeb00"/>
  <path fill-rule="evenodd" fill="#C93" d="m576.75,442.5,20.624-59.703-20.624,16.016,0,43.688z"/>
  <path d="m576.75,442.5,20.624-59.703-20.624,16.016-20.625-16.016,20.625,59.703z" stroke="#806600" stroke-miterlimit="4" stroke-dasharray="none" stroke-width="1" fill="none"/>
 </g>
 <g fill-rule="evenodd" transform="matrix(1.2200537,0,0,1.2200537,-161.37894,-253.66987)">
  <path d="m187.16,320.96,16.125,0,8.062-13.965,8.062,13.965,16.126,0-8.063,13.964,8.062,13.965-16.125,0-8.062,13.965-8.063-13.965-16.125,0,8.063-13.964-8.062-13.965z" fill="#d4aa00"/>
  <path d="m235.54,348.89-16.125,0-8.062-13.964,24.187,13.964z" fill="#ffeb00"/>
  <path d="m211.35,362.85-8.063-13.965,8.063-13.964,0,27.929z" fill="#ffeb00"/>
  <path d="m187.16,320.96,8.062,13.965,16.125,0-24.187-13.965z" fill="#ffeb00"/>
  <path d="m187.16,348.89,8.062-13.965,16.125,0.001-24.187,13.964z" fill="#ffeb00"/>
  <path d="m211.35,306.99-8.063,13.965,8.063,13.965,0-27.93z" fill="#ffeb00"/>
  <path d="m235.54,320.96-16.125,0-8.062,13.965,24.187-13.965z" fill="#ffeb00"/>
  <path d="m187.16,320.96,16.125,0,8.062-13.965,8.062,13.965,16.126,0-8.063,13.964,8.062,13.965-16.125,0-8.062,13.965-8.063-13.965-16.125,0,8.063-13.964-8.062-13.965z" stroke="#806600" stroke-dasharray="none" stroke-miterlimit="4" stroke-width="0.81963605" fill="none"/>
 </g>
 <g fill-rule="evenodd" stroke="#806600" stroke-dasharray="none" stroke-miterlimit="4" stroke-width="0.7" fill="#ffeb00">
  <path d="m192.8,0.61006,8.6697,0,0,6.7066,10.633,0,0,7.8523-10.633,0,0,51.036-8.6697,0,0-51.036-10.632,0,0-7.8523,10.632,0,0-6.7066z"/>
  <path d="m118.95,22.234,0,43.971-8.6697,0,0-41.681-8.0145,0,0,41.681-8.6697,0,0-43.971,25.354,0z"/>
  <path d="m141.61,22.234,8.6685,0,0.001,27.012c0,14.644-11.538,16.959-16.685,16.959h-8.6697v-27.013c0-14.643,11.537-16.958,16.685-16.958zm0,2.0509c-7.2105,0-7.7766,5.7233-8.0158,9.1736v30.695c7.2105,0,7.7766-5.7245,8.0158-9.1736v-30.695z"/>
  <path d="m260.43,22.234,8.6697,0c0.009,9.4969-5.9258,14.555-16.585,15.278,3.7431,7.08,7.9633,9.6079,16.585,9.8251v18.868h-25.355v-27.013c0-14.643,11.538-16.958,16.685-16.958zm0,41.681,0-15.853c-3.3308-1.2274-5.827-3.3246-8.0158-6.5663v22.42h8.0158zm0-39.63c-7.2105,0-7.7766,5.7233-8.0158,9.1736v2.3437c8.5477-1.3225,8.1243-4.3007,8.0158-11.517z"/>
  <path d="m156.74,37.83,0.11591-0.0073,0.004,0c4.0555-0.26597,9.1516-0.12689,12.625-2.739,2.844-2.1363,3.2197-6.1173,0.71861-8.7673-0.0683-0.0732-0.13908-0.14519-0.21228-0.21473l0.002-0.0012-0.0134-0.0122-0.001,0.0012c-1.8215-1.7337-4.574-2.2571-6.9433-1.3689,2.1253,0.65761,3.6833,2.6695,3.6833,5.0059,0,2.8915-2.3437,5.2352-5.234,5.2352s-5.2352-2.3437-5.2352-5.2352c0-0.82842,0.19277-1.6129,0.53682-2.3096,1.314-2.6658,4.6936-4.7997,7.6363-5.1279,2.4901-0.27817,5.084,0.49778,6.9958,2.3291,0.91382,0.87478,1.5897,1.9338,2.007,3.0782v-5.4622h8.6697v43.971h-8.6697v-32.977c-1.242,3.2941-4.6643,5.0315-8.0158,5.8062v27.171h-8.6697v-28.375z"/>
  <path d="m212.67,37.83,0.11591-0.0073,0.004,0c4.0555-0.26597,9.1516-0.12689,12.626-2.739,2.844-2.1363,3.2185-6.1173,0.7174-8.7673-0.0683-0.0732-0.13909-0.14519-0.21107-0.21473l0.001-0.0012-0.0134-0.0122-0.001,0.0012c-1.8215-1.7337-4.574-2.2571-6.9433-1.3689,2.1253,0.65761,3.6833,2.6695,3.6833,5.0059,0,2.8915-2.3437,5.2352-5.234,5.2352s-5.2352-2.3437-5.2352-5.2352c0-0.82842,0.19399-1.6129,0.53683-2.3096,1.314-2.6658,4.6935-4.7997,7.6363-5.1279,2.4901-0.27817,5.084,0.49778,6.9958,2.3291,0.91382,0.87478,1.5897,1.9338,2.007,3.0782v-5.4622h8.6697v43.971h-8.6697v-16.479h-8.0145v16.479h-8.6709v-28.375zm16.685,9.6079,0-14.21c-1.242,3.2941-4.6643,5.0315-8.0145,5.8062v8.4037h8.0145z"/>
  <path d="m275.32,37.83,0.11591-0.0073,0.004,0c4.0554-0.26597,9.1516-0.12689,12.625-2.739,2.844-2.1363,3.2197-6.1173,0.71861-8.7673-0.0683-0.0732-0.13908-0.14519-0.21229-0.21473l0.002-0.0012-0.0134-0.0122-0.001,0.0012c-1.8215-1.7337-4.574-2.2571-6.9433-1.3689,2.1253,0.65761,3.6833,2.6695,3.6833,5.0059,0,2.8915-2.3437,5.2352-5.234,5.2352s-5.2352-2.3437-5.2352-5.2352c0-0.82842,0.19277-1.6129,0.53682-2.3096,1.314-2.6658,4.6936-4.7997,7.6363-5.1279,2.4901-0.27817,5.084,0.49778,6.9958,2.3291,0.91382,0.87478,1.5897,1.9338,2.007,3.0782v-5.4622h8.6697v43.971h-8.6697v-16.479h-8.0158v16.479h-8.6697v-28.375zm16.685,9.6079,0-14.21c-1.242,3.2941-4.6643,5.0315-8.0158,5.8062v8.4037h8.0158z"/>
 </g>
 <g fill-rule="evenodd" transform="matrix(1.2200537,0,0,1.2200537,39.932971,-253.66987)">
  <path fill="#d4aa00" d="m187.16,320.96,16.125,0,8.062-13.965,8.062,13.965,16.126,0-8.063,13.964,8.062,13.965-16.125,0-8.062,13.965-8.063-13.965-16.125,0,8.063-13.964-8.062-13.965z"/>
  <path fill="#ffeb00" d="m235.54,348.89-16.125,0-8.062-13.964,24.187,13.964z"/>
  <path fill="#ffeb00" d="m211.35,362.85-8.063-13.965,8.063-13.964,0,27.929z"/>
  <path fill="#ffeb00" d="m187.16,320.96,8.062,13.965,16.125,0-24.187-13.965z"/>
  <path fill="#ffeb00" d="m187.16,348.89,8.062-13.965,16.125,0.001-24.187,13.964z"/>
  <path fill="#ffeb00" d="m211.35,306.99-8.063,13.965,8.063,13.965,0-27.93z"/>
  <path fill="#ffeb00" d="m235.54,320.96-16.125,0-8.062,13.965,24.187-13.965z"/>
  <path d="m187.16,320.96,16.125,0,8.062-13.965,8.062,13.965,16.126,0-8.063,13.964,8.062,13.965-16.125,0-8.062,13.965-8.063-13.965-16.125,0,8.063-13.964-8.062-13.965z" stroke="#806600" stroke-miterlimit="4" stroke-dasharray="none" stroke-width="0.81963605" fill="none"/>
 </g>
 <g fill-rule="evenodd" transform="matrix(1.2200537,0,0,1.2200537,39.932971,-44.325736)">
  <path d="m187.16,320.96,16.125,0,8.062-13.965,8.062,13.965,16.126,0-8.063,13.964,8.062,13.965-16.125,0-8.062,13.965-8.063-13.965-16.125,0,8.063-13.964-8.062-13.965z" fill="#d4aa00"/>
  <path d="m235.54,348.89-16.125,0-8.062-13.964,24.187,13.964z" fill="#ffeb00"/>
  <path d="m211.35,362.85-8.063-13.965,8.063-13.964,0,27.929z" fill="#ffeb00"/>
  <path d="m187.16,320.96,8.062,13.965,16.125,0-24.187-13.965z" fill="#ffeb00"/>
  <path d="m187.16,348.89,8.062-13.965,16.125,0.001-24.187,13.964z" fill="#ffeb00"/>
  <path d="m211.35,306.99-8.063,13.965,8.063,13.965,0-27.93z" fill="#ffeb00"/>
  <path d="m235.54,320.96-16.125,0-8.062,13.965,24.187-13.965z" fill="#ffeb00"/>
  <path d="m187.16,320.96,16.125,0,8.062-13.965,8.062,13.965,16.126,0-8.063,13.964,8.062,13.965-16.125,0-8.062,13.965-8.063-13.965-16.125,0,8.063-13.964-8.062-13.965z" stroke="#806600" stroke-dasharray="none" stroke-miterlimit="4" stroke-width="0.81963605" fill="none"/>
 </g>
 <g fill-rule="evenodd" transform="matrix(1.2200537,0,0,1.2200537,-161.37894,-44.325736)">
  <path fill="#d4aa00" d="m187.16,320.96,16.125,0,8.062-13.965,8.062,13.965,16.126,0-8.063,13.964,8.062,13.965-16.125,0-8.062,13.965-8.063-13.965-16.125,0,8.063-13.964-8.062-13.965z"/>
  <path fill="#ffeb00" d="m235.54,348.89-16.125,0-8.062-13.964,24.187,13.964z"/>
  <path fill="#ffeb00" d="m211.35,362.85-8.063-13.965,8.063-13.964,0,27.929z"/>
  <path fill="#ffeb00" d="m187.16,320.96,8.062,13.965,16.125,0-24.187-13.965z"/>
  <path fill="#ffeb00" d="m187.16,348.89,8.062-13.965,16.125,0.001-24.187,13.964z"/>
  <path fill="#ffeb00" d="m211.35,306.99-8.063,13.965,8.063,13.965,0-27.93z"/>
  <path fill="#ffeb00" d="m235.54,320.96-16.125,0-8.062,13.965,24.187-13.965z"/>
  <path d="m187.16,320.96,16.125,0,8.062-13.965,8.062,13.965,16.126,0-8.063,13.964,8.062,13.965-16.125,0-8.062,13.965-8.063-13.965-16.125,0,8.063-13.964-8.062-13.965z" stroke="#806600" stroke-miterlimit="4" stroke-dasharray="none" stroke-width="0.81963605" fill="none"/>
 </g>
</svg>
