<?xml version="1.0" encoding="UTF-8" standalone="no"?>
<!-- Created with Inkscape (http://www.inkscape.org/) -->

<svg
   xmlns:svg="http://www.w3.org/2000/svg"
   xmlns="http://www.w3.org/2000/svg"
   version="1.1"
   width="112.386mm"
   height="140.06mm"
   viewBox="0 0 112.168 139.789"
   id="svg2"
   xml:space="preserve"
   style="fill-rule:evenodd">
 <defs
   id="defs4">
  <style
   type="text/css"
   id="style6" />
 </defs>
 <g
   id="Layer_x0020_1">
  
  <path
   d="m 65.5124,132.892 c -4.4906,0.26359 -8.16518,2.4781 -8.16518,5.69706 l 0,0.84756 -2.49517,0 0,-0.84756 c 0,-3.21946 -3.67458,-5.43347 -8.16518,-5.69706 l -31.5598,0 c -8.12556,0 -14.775,-6.64872 -14.775,-14.775 0,-39.2551 0,-78.5102 0,-117.765 37.1546,0 74.3096,0 111.464,0 0,39.2551 0,78.5102 0,117.765 0,8.12626 -6.64932,14.775 -14.775,14.775 l -31.5289,0 z"
   id="path10"
   style="fill:#ffffff" />
  <path
   d="m 65.5124,133.244 c -2.23767,0.13424 -4.25955,0.76262 -5.69148,1.76159 -1.31236,0.91573 -2.12159,2.14455 -2.12159,3.58356 l 0,0.84756 0,0.35212 -0.352118,0 -2.49517,0 -0.352118,0 0,-0.35212 0,-0.84756 c 0,-1.43911 -0.809133,-2.66793 -2.12149,-3.58366 -1.43173,-0.99897 -3.45381,-1.62725 -5.69157,-1.76149 l 0,2e-4 -31.5598,0 c -4.15994,0 -7.94202,-1.7019 -10.6837,-4.44349 -2.74149,-2.74159 -4.44339,-6.52346 -4.44339,-10.6836 l 0,-117.76500039 0,-0.352117997 0.352118,0 111.463998,0 0.35212,0 0,0.352117997 0,117.76500039 c 0,4.16014 -1.7019,7.94212 -4.44339,10.6836 -2.74169,2.74159 -6.52366,4.44349 -10.6837,4.44349 l -31.5289,0 0,-2e-4 z m -6.0931,1.1867 c 1.54191,-1.07582 3.70033,-1.75011 6.07383,-1.88934 l 0.01926,-0.001 31.5289,0 c 3.965717,0 7.571527,-1.62286 10.185897,-4.23709 2.61414,-2.61414 4.23699,-6.21995 4.23699,-10.1858 l 0,-117.41299729 -110.7599973,0 0,117.41299729 c 0,3.96582 1.62286,7.57153 4.23699,10.1858 2.61434,2.61424 6.2202503,4.23709 10.1859003,4.23709 l 31.5598,0 0.01926,0.001 c 2.3736,0.13923 4.53222,0.81352 6.07393,1.88924 1.4996,1.04637 2.4241,2.47061 2.4241,4.15854 l 0,0.49544 1.79093,0 0,-0.49544 c 0,-1.68793 0.924709,-3.11217 2.4242,-4.15844 z"
   id="path12"
   style="fill:#1f1a17;fill-rule:nonzero" />
  <path
   d="m 2.34825,115.636 0,2.48129 c 0,7.02439 5.75455,12.7788 12.7788,12.7788 l 31.6183,0 0.05849,0.003 c 3.4048,0.19992 7.58062,1.56746 9.29579,4.75529 1.71518,-3.18782 5.89099,-4.55538 9.29579,-4.75529 l 0.05849,-0.003 31.5874,0 c 7.024387,0 12.778797,-5.75445 12.778797,-12.7788 l 0,-2.48129 -107.4719966,0 z"
   id="path14"
   style="fill:#488c81" />
  <path
   d="m 109.82,2.34825 c -35.824,0 -71.6479,0 -107.472,0 l 0,113.294 0,0.0936 107.472,0 0,-0.011 0,-113.377 z"
   id="path16"
   style="fill:#017cc3" />
 </g>
 <g
   id="wezhi">
  
  <path
   d="m 35.2298,106.653 -14.0144,0 0,-46.765 8.54664,0.01288 c 0,-1.83904 -0.355711,-4.45906 -1.07332,-6.46647 -2.80018,-8.40751 -10.7328,-14.4718 -20.0799,-14.4718 0,-8.26429 0,-0.314391 0,-6.37335 l 0.082341,0 26.5386995,0 c 0,24.6879 -9.9e-5,49.3759 -9.9e-5,74.063705 z m 41.709,0 14.0144,0 0,-46.765 -8.54664,0.01288 c 0,-1.83904 0.355711,-4.45906 1.07332,-6.46647 2.80018,-8.40751 10.7328,-14.4718 20.0799,-14.4718 0,-8.26429 0,-0.314391 0,-6.37335 l -0.0823,0 -26.538701,0 c 0,24.6879 1e-4,49.3759 1e-4,74.063705 z m -10.7561,-81.4324 7.34817,0 0,6.95732 -7.34817,0 0,-6.95732 z m 37.3598,22.3316 -0.0485,5.99e-4 c -0.8778,0.0033 -1.73424,0.09701 -2.56094,0.271574 l -1.932956,-7.72593 c 1.466556,-0.332656 2.992396,-0.509114 4.559566,-0.509114 l 0,7.96307 -0.0172,-2e-4 z m -3.12764,0.393438 c -0.584069,0.14971 -1.15187,0.340341 -1.70011,0.568798 l -1.19199,-2.62851 2.19545,-0.724596 0.69665,2.78431 z m -4.98774,-6.68076 c 0.981499,-0.423879 2.00192,-0.774101 3.05548,-1.04218 l 1.10436,4.41395 -2.29116,0.748849 -1.86868,-4.12062 z m 2.80087,7.46454 c -1.7556,0.820411 -3.29013,2.03466 -4.4906,3.52886 l -6.6071,-4.45038 c 2.03017,-2.70326 4.71137,-4.88973 7.81117,-6.32555 l 3.28653,7.24706 z m -13.0728,2.28228 c 0.481767,-0.97062 1.03769,-1.89762 1.66088,-2.77373 l 3.74455,2.52211 -1.20197,2.08945 -4.20346,-1.83784 z m 8.25711,1.66927 c -0.354813,0.481966 -0.67609,0.989982 -0.96034,1.52095 l -2.58978,-1.13231 1.14698,-2.00731 2.40314,1.61866 z m -1.20167,1.99623 c -0.647446,1.3441 -1.06304,2.82094 -1.19409,4.37872 l -0.0078,0.09741 -7.93613,0 c -0.0052,-0.988385 0.193226,-2.19625 0.407311,-3.34143 0.322475,-1.50808 0.81043,-2.95488 1.4444,-4.32033 l 7.28629,3.18563 z m -12.9248,52.745802 14.4368,0 0,5.95666 -14.4368,0 0,-5.95666 z m -0.704236,0 -9.88864,0 0,5.986 9.88864,0 0,-5.986 z m -2.41752,-85.213702 0,31.225 c -2.79768,-8.40003 -10.7187,-14.4607 -20.055,-14.4715 -9.33631,0.01078 -17.3072,6.07144 -20.1049,14.4715 l 0,-31.225 c 13.3866,0 26.7732,0 40.1598,0 z m -16.4058,9.96859 0,-6.95732 c -2.44936,0 -4.89881,0 -7.34817,0 l 0,6.95732 c 2.44936,0 4.89881,0 7.34817,0 z m 18.7427,-11.7551 c -14.9445,0 -29.8891,0 -44.8336,0 l 1.37274,1.05595 c 14.0293,0 28.0587,0 42.0881,0 l 1.37274,-1.05595 z m 1.07093,-8.48995 -6.0411,0 0,4.95161 -7.34817,0 0,-4.95161 -6.42436,0 0,4.95161 c -2.44936,0 -4.89881,0 -7.34817,0 l 0,-4.95161 -6.42436,0 0,4.95161 -7.34817,0 0,-4.95161 -6.0411,0 0,7.77214 c 15.6584,0 31.317,0 46.9754,0 l 0,-7.77214 z m -3.4078,-3.51 c -13.3866,0 -26.7732,0 -40.1598,0 l 0,2.82054 3.36149,0 0,4.95161 5.89179,0 0,-4.95161 7.88073,0 0,4.95161 c 1.9639,0 3.92789,0 5.89179,0 l 0,-4.95161 7.88073,0 0,4.95161 5.89179,0 0,-4.95161 3.36149,0 0,-2.82054 z m 0,51.4652 0,46.764902 -7.47332,0 0,-46.765002 7.47332,1e-4 z m -20.055,-12.3357 c 0.879197,0.01068 1.74053,0.09032 2.60166,0.272073 l 1.93296,-7.72593 c -1.45099,-0.329162 -2.9958,-0.576783 -4.5454,-0.580476 -1.5468,0 -3.06486,0.238239 -4.57374,0.580476 l 1.93296,7.72593 c 0.875404,-0.184842 1.75809,-0.261194 2.65156,-0.272073 z m 3.11986,0.393338 c 0.584069,0.14971 1.15187,0.340341 1.70011,0.568798 l 1.19199,-2.62851 -2.19545,-0.724596 -0.696651,2.78431 z m 4.98774,-6.68076 c -0.981499,-0.423879 -2.00192,-0.774101 -3.05548,-1.04218 l -1.10436,4.41395 2.29116,0.748849 1.86868,-4.12062 z m -2.80087,7.46454 c 1.7556,0.820411 3.29013,2.03466 4.4906,3.52886 l 6.6071,-4.45038 c -2.03017,-2.70326 -4.71137,-4.88973 -7.81117,-6.32555 l -3.28653,7.24706 z m 13.0728,2.28228 c -0.481767,-0.97062 -1.03769,-1.89762 -1.66088,-2.77373 l -3.74455,2.52211 1.20197,2.08945 4.20346,-1.83784 z m -8.25711,1.66927 c 0.354813,0.481966 0.67609,0.989982 0.96034,1.52095 l 2.58978,-1.13231 -1.14698,-2.00731 -2.40314,1.61866 z m 1.20167,1.99623 c 0.647446,1.3441 1.06304,2.82094 1.19409,4.37872 l 0.0078,0.09741 7.52882,0 0,-3.34143 c -0.322475,-1.50808 -0.81043,-2.95488 -1.4444,-4.32033 l -7.28629,3.18563 z m 36.126396,-28.9462 -2.57831,0 0,3.13942 -5.876116,0 0,-3.13942 -6.00986,0 0,3.13942 -5.97333,0 0,-3.13932 -6.08611,0 -0.09731,0 0,4.35736 0.09512,0 26.525902,0 0,-4.35746 z m -26.620796,5.07527 26.526096,0 0.0947,0 0,1.05595 -0.0939,0 -26.526998,0 1e-4,-1.05595 z m -30.953,-5.58568 -7.34817,0 0,6.95732 7.34817,0 0,-6.95732 z m -37.3598,22.3316 0.048506,5.99e-4 c 0.8778,0.0033 1.73424,0.09701 2.56094,0.271574 l 1.93296,-7.72593 C 11.70184,39.765813 10.176,39.589355 8.60883,39.589355 l 0,7.96307 0.017167,-2e-4 z m 3.12764,0.393438 c 0.584069,0.14971 1.15187,0.340341 1.70011,0.568798 l 1.19199,-2.62851 -2.19545,-0.724596 -0.696651,2.78431 z m 4.98774,-6.68076 c -0.981499,-0.423879 -2.00192,-0.774101 -3.05548,-1.04218 l -1.10436,4.41395 2.29116,0.748849 1.86868,-4.12062 z m -2.80087,7.46454 c 1.7556,0.820411 3.29013,2.03466 4.4906,3.52886 l 6.6071,-4.45038 c -2.03017,-2.70326 -4.71137,-4.88973 -7.81117,-6.32555 l -3.28653,7.24706 z m 13.0728,2.28228 c -0.481767,-0.97062 -1.03769,-1.89762 -1.66088,-2.77373 l -3.74455,2.52211 1.20197,2.08945 4.20346,-1.83784 z m -8.25711,1.66927 c 0.354813,0.481966 0.67609,0.989982 0.96034,1.52095 l 2.58978,-1.13231 -1.14698,-2.00731 -2.40314,1.61866 z m 1.20167,1.99623 c 0.647446,1.3441 1.06304,2.82094 1.19409,4.37872 l 0.0078,0.09741 7.93613,0 c 0.0052,-0.988385 -0.193226,-2.19625 -0.407311,-3.34143 -0.322475,-1.50808 -0.81043,-2.95488 -1.4444,-4.32033 l -7.28629,3.18563 z m 12.9248,52.745796 -14.4368,0 0,5.95666 14.4368,0 0,-5.95666 z m 0.704236,0 9.88864,0 0,5.986 -9.88864,0 0,-5.986 z m 2.41752,-47.534996 0,46.764896 7.47332,0 0,-46.764996 -7.47332,1e-4 z m 16.9351,-11.9424 c -0.584069,0.14971 -1.15187,0.340341 -1.70011,0.568798 l -1.19199,-2.62851 2.19545,-0.724596 0.696651,2.78431 z m -4.98774,-6.68076 c 0.981499,-0.423879 2.00192,-0.774101 3.05548,-1.04218 l 1.10436,4.41395 -2.29116,0.748849 -1.86868,-4.12062 z m 2.80087,7.46454 c -1.7556,0.820411 -3.29013,2.03466 -4.4906,3.52886 l -6.6071,-4.45038 c 2.03017,-2.70326 4.71137,-4.88973 7.81117,-6.32555 l 3.28653,7.24706 z m -13.0728,2.28228 c 0.481767,-0.97062 1.03769,-1.89762 1.66088,-2.77373 l 3.74455,2.52211 -1.20197,2.08945 -4.20346,-1.83784 z m 8.25711,1.66927 c -0.354813,0.481966 -0.67609,0.989982 -0.96034,1.52095 l -2.58978,-1.13231 1.14698,-2.00731 2.40314,1.61866 z m -1.20167,1.99623 c -0.647446,1.3441 -1.06304,2.82094 -1.19409,4.37872 l -0.0078,0.09741 -7.52882,0 0,-3.34143 c 0.322475,-1.50808 0.81043,-2.95488 1.4444,-4.32033 l 7.28629,3.18563 z m -36.1264,-28.9462 2.57831,0 0,3.13942 5.87612,0 0,-3.13942 6.00986,0 0,3.13942 5.97333,0 0,-3.13932 6.08611,0 0.09731,0 0,4.35736 -0.09511,0 -26.5259003,0 0,-4.35746 z m 26.6208,5.07527 -26.5261,0 -0.094717,0 0,1.05595 0.093918,0 26.5270004,0 -1e-4,-1.05595 z"
   id="path20"
   style="fill:#dedddd" />
 </g>
</svg>