<?xml version="1.0" encoding="UTF-8" standalone="no"?>
<svg width="165px" xmlns="http://www.w3.org/2000/svg" xmlns:xlink="http://www.w3.org/1999/xlink" height="9px">
 <path fill="#3ef8f4" d="m4.5 0c2.485 0 4.5 2.015 4.5 4.5s-2.015 4.5-4.5 4.5-4.5-2.015-4.5-4.5 2.015-4.5 4.5-4.5z" fill-rule="evenodd"/>
 <path fill="#3ef8f4" d="m26.5 0c2.485 0 4.5 2.015 4.5 4.5s-2.015 4.5-4.5 4.5-4.5-2.015-4.5-4.5 2.015-4.5 4.5-4.5z" fill-rule="evenodd"/>
 <path fill="#3ef8f4" d="m48.5 0c2.485 0 4.5 2.015 4.5 4.5s-2.015 4.5-4.5 4.5-4.5-2.015-4.5-4.5 2.015-4.5 4.5-4.5z" fill-rule="evenodd"/>
 <path fill="#3ef8f4" d="m69.5 0c2.485 0 4.5 2.015 4.5 4.5s-2.015 4.5-4.5 4.5-4.5-2.015-4.5-4.5 2.015-4.5 4.5-4.5z" fill-rule="evenodd"/>
 <path fill="#3ef8f4" d="m95.5 0c2.485 0 4.5 2.015 4.5 4.5s-2.015 4.5-4.5 4.5-4.5-2.015-4.5-4.5 2.015-4.5 4.5-4.5z" fill-rule="evenodd"/>
 <path fill="#3ef8f4" d="m117.5 0c2.48 0 4.5 2.015 4.5 4.5s-2.02 4.5-4.5 4.5-4.5-2.015-4.5-4.5 2.02-4.5 4.5-4.5z" fill-rule="evenodd"/>
 <path fill="#3ef8f4" d="m139.5 0c2.48 0 4.5 2.015 4.5 4.5s-2.02 4.5-4.5 4.5-4.5-2.015-4.5-4.5 2.02-4.5 4.5-4.5z" fill-rule="evenodd"/>
 <path fill="#3ef8f4" d="m160.5 0c2.48 0 4.5 2.015 4.5 4.5s-2.02 4.5-4.5 4.5-4.5-2.015-4.5-4.5 2.02-4.5 4.5-4.5z" fill-rule="evenodd"/>
</svg>
