<?xml version="1.0" encoding="UTF-8" standalone="no"?>
<svg width="1621px" xmlns="http://www.w3.org/2000/svg" xmlns:xlink="http://www.w3.org/1999/xlink" height="1065px">
 <path fill="#36197f" d="m1604.2 685.24s39-13.98-1.8-37.6-90.1-30.62-121.9-152.89c-31.9-122.27-56.3-160.53-90.5-182.95s-35.8 10.7-41.7 21.74c-5.8 11.04-33 48.51-72.4-3.23-38.5-50.67-62.4-92.42-83.5-131.69-21.1-39.26-121.4-225.47-200.52-97.75 0 0-12.68 28.25-23.22 57.84-10.55 29.59-47.36 89.69-144.16 6.08 0 0-68.12-65.82-129.83-121.61-61.71-55.783-175.18-71.444-158.12 38.682s105.53 174.52-53.77 159.5c0 0-57.62-6.42-154.45-50.79-96.82-44.37-139.5 21.27-144.91 31.58-5.42 10.3-30.79 29.82 49.53 82.1 80.32 52.27-14.63 89.36-83.24 92.03-68.614 2.66-115.41 68.44-64.503 100.61 50.913 32.17 2.363 46.01-39.84 78.35-42.202 32.34-51.774 62.56-41.666 89.3 10.107 26.75 45.132 30.97 87.286 23.21 42.153-7.77 84.843 20.33 58.903 86.39-25.95 66.06 56.51 69.76 109.28 56.41 52.78-13.35 238.5-46.21 142.63 44.93-95.87 91.13 38.72 117.41 129.71 92.07s253.93-82.78 253.93-82.78 104.69-41.87 65.96 51.08c-38.74 92.95-4.47 174.55 131.47 100.15 0 0 82.93-51.55 140.53-119.32 49.2-57.88 95.3-6.08 88.9 20.75-6.8 28.21-23.4 85.37 87.3 23.21 0 0 54.6-46.78 67.5-86.51 13-39.72 63.1-72.17 122.3-58.3 59.1 13.87 35.1-22.44 35.1-22.44s-767.76-359.13-1489.4-158.91c-0.005 0 488.01-258.25 1569.1 50.76z" fill-rule="evenodd"/>
</svg>
