<?xml version="1.0" encoding="UTF-8" standalone="no"?>
<svg width="91px" xmlns="http://www.w3.org/2000/svg" xmlns:xlink="http://www.w3.org/1999/xlink" height="51px">
 <path fill="#ea4799" d="m2.743 5.229s-4.002 3.623 0.918 9.074c4.715 5.223 6.183 3.037 9.299 3.545 0 0 7.246-0.144 13.573 14.15 4.957 11.198 17.686 13.094 19.809 13.51 2.087 0.41 4.993 1.709 27.243 0.583 0 0 17.754 12.311 17.291-2.087-0.402-12.507-10.815-15.874-30.176-23.228 0 0-11.711-2.933-18.448-4.528-6.759-1.6-12.815-6.142-19.981-12.086-11.61-9.629-18.553 0.437-19.528 1.067z" fill-rule="evenodd"/>
 <path fill="#f54ea2" d="m2.502 4.042s-3.971 3.575 0.925 8.97c4.693 5.171 6.149 3.012 9.245 3.519 0 0 7.199-0.132 13.506 14.006 4.942 11.076 17.748 14.279 19.702 13.385 1.954-0.895 13.54-9.784 28.765-1.837 0 0 20.734 11.621 15.481 0.415-5.254-11.207-9.671-14.374-28.918-21.672 0 0-18.855 0.739-25.348-1.607-6.493-2.347-9.22-3.17-15.047-12.136-5.826-8.967-17.343-3.665-18.311-3.043z" fill-rule="evenodd"/>
</svg>
