<?xml version="1.0" encoding="UTF-8" standalone="no"?>
<svg width="147px" xmlns="http://www.w3.org/2000/svg" xmlns:xlink="http://www.w3.org/1999/xlink" height="118px">
 <path fill="#f54ea2" d="m73.5-0.001c40.59 0 73.5 32.74 73.5 73.127 0 30.254-18.47 40.364-44.8 43.534 0.23 0.22-20.284-48.422-20.284-43.189 0.276 0.022 6.715 44.129 6.599 44.249-4.848 0.21-9.87 0.28-15.015 0.28-40.593 0-73.5-4.49-73.5-44.874 0-40.387 32.907-73.127 73.5-73.127z" fill-rule="evenodd"/>
 <path fill="#ea4799" d="m86.446 1.246s10.598 1.98 15.454 4.57l-16.289 40.303 0.835-44.873z" fill-rule="evenodd"/>
 <path fill="#ea4799" d="m131.13 27.837s3.72 3.978 7.93 12.049l-25.47 11.219 17.54-23.268z" fill-rule="evenodd"/>
 <path fill="#ea4799" d="m146.58 66.063l-52.617 7.479 53.037 3.739s-0.07-9.412-0.42-11.218z" fill-rule="evenodd"/>
 <path fill="#df4090" d="m12.528 105.12l53.037-34.902-35.914 43.622s-10.995-2.84-17.123-8.72z" fill-rule="evenodd"/>
 <path fill="#ea4799" d="m3.341 51.52l32.156 2.908-24.639-19.112s-5.45 7.318-7.517 16.204z" fill-rule="evenodd"/>
 <path fill="#ea4799" d="m37.167 9.556l24.64 46.119-10.858-52.352s-9.119 3.278-13.782 6.233z" fill-rule="evenodd"/>
</svg>
