<?xml version="1.0" encoding="UTF-8" standalone="no"?>
<svg width="1527px" xmlns="http://www.w3.org/2000/svg" xmlns:xlink="http://www.w3.org/1999/xlink" height="492px">
 <path fill="#36197f" d="m0.701 91.545c10.107 26.745 45.132 30.965 87.286 23.205 42.153-7.77 84.843 20.33 58.903 86.39-25.95 66.06 56.51 69.76 109.28 56.41 52.78-13.35 238.5-46.21 142.63 44.93-95.87 91.13 38.72 117.41 129.71 92.07s253.93-82.78 253.93-82.78 104.69-41.87 65.96 51.08c-38.74 92.94-4.47 174.57 131.47 100.13 0 0 82.93-51.53 140.53-119.3 49.2-57.88 95.3-6.08 88.9 20.75-6.8 28.21-23.4 85.35 87.3 23.21 0 0 54.6-46.78 67.5-86.51 13-39.72 63.1-72.17 122.3-58.3 59.1 13.87 35.1-22.44 35.1-22.44s-744.03-348.03-1455.7-167.86c-11.214 2.849-45.578 16.742-65.8 38.47" fill-rule="evenodd"/>
</svg>
