<?xml version="1.0" encoding="UTF-8" standalone="no"?>
<svg width="285px" xmlns="http://www.w3.org/2000/svg" xmlns:xlink="http://www.w3.org/1999/xlink" height="188px">
 <path fill="#ff9e2b" d="m0.878 123.38s16.126 31.78 67.199 45.5c0 0 16.783 2.73 28.551 3.94 11.772 1.2 22.012 6.88 31.392 11.33s27.32 6.11 30.77-13.37c0 0-1.63-9.84 5.81-13.56 10.63-5.32 31.24 2.89 50.92-0.75 19.68-3.65 33.22-16.31 30.58-36.48-1.84-14.1 1.14-16.55 1.69-19.32 0 0 3.8-8.223 15.03-9.592 0 0 22.88-6.042 22.17-34.227 0 0-1.45-9.488-7.83-16.345-6.37-6.859-1.71-23.551 0.26-26.227 0 0 4.62-16.191-11.51-14.074 0 0-14.13 2.339-24.08 22.304 0 0-5.57 16.401-22.68 9.922-17.1-6.478-30.81 8.1-33.43 22.661 0 0 0.7 22.343-23.04 18.167-23.75-4.176-37.23 10.984-41.43 20.082-4.2 9.099-10.86 67.229-59.081 53.529 0 0-31.515-9.94-54.378-31.34 0 0-10.854-6.39-6.913 7.85z" fill-rule="evenodd"/>
 <path fill="#d77d13" d="m266.06 0.082s-20.5 69.965-68.95 113.87c0 0-40.66 35.45-86.38 43.38 0 0 43.16-0.03 89.2-39.72 0 0 52.28-48.177 68.54-115.59l-2.41-1.938z" fill-rule="evenodd"/>
</svg>
