<?xml version="1.0" encoding="UTF-8" standalone="no"?>
<svg width="74px" xmlns="http://www.w3.org/2000/svg" xmlns:xlink="http://www.w3.org/1999/xlink" height="95px">
 <path fill="#fe744f" d="m51.629 1.012s-18.79 3.852-41.876 39.885c0 0-23.924 41.272 3.16 53.312 0 0 17.361 7.211 32-29.618 0 0 11.535-28.679 23.309-39.096 11.775-10.415 5.184-30.259-16.593-24.483z" fill-rule="evenodd"/>
 <path fill="#da6048" d="m56.963 6.145c0.763 0 1.382 0.619 1.382 1.382 0 0-19.777 16.142-28.765 34.447-11.769 23.967-13.506 51.643-13.506 51.643 0 0.763-0.619 1.382-1.383 1.382-0.763 0-1.383-0.619-1.383-1.382 0 0 2.115-28.444 13.992-52.633 8.786-17.892 28.28-33.457 28.28-33.457 0-0.763 0.619-1.382 1.383-1.382z" fill-rule="evenodd"/>
</svg>
