<?xml version="1.0" encoding="UTF-8" standalone="no"?>
<svg width="464px" xmlns="http://www.w3.org/2000/svg" xmlns:xlink="http://www.w3.org/1999/xlink" height="291px">
 <path d="m457.64 291s-14.96-42.02-49.84-65.35c0 0-6.42-4.57-20.13-3.77-13.72 0.81-25.91-5.35-33.28-13.86-7.36-8.52-18.87-13.74-39.49-7.45 0 0-7.45 1.98-13.77 10.35-6.32 8.36-36.2 20.27-58.2 4.72-21.99-15.54-31.72-19.89-57.46-9.39-25.75 10.5-75-0.62-95.827-41.95-20.826-41.34 2.639-40.1-55.804-61.28-58.443-21.175-34.344-107.94 20.418-101.12 0 0.001 30.662 9.754 38.447 31.781 7.786 22.028 42.926 36.631 52.926 29.409 10.01-7.22 42.46-20.956 87.89 27.683 45.43 48.637 60.83 71.217 96.74 84.647 0 0 53.81 1.3 68.86 20.89 15.06 19.58 51.89 49.59 59.12 67.15 7.24 17.57-0.6 27.54-0.6 27.54z" fill="#17e4e0"/>
 <path d="m461.79 289.09s-3.99 2.45-6.1-9.34c-2.1-11.79-20.76-43.26-29.48-48.95-8.71-5.69-14.87-12.25-21.13-16.49-6.26-4.25-22.73-1.8-32.41-14.56-10.65-14.06-27.15-22.48-45.43-18.34-18.28 4.13-16.08 11.97-35.23 26.15-19.14 14.17-33.48 19.78-49.63-1.44-16.14-21.23-33.43-28-70.3-7.63-36.87 20.36-73.437-10.81-77.329-37.58-3.891-26.78 1.237-52.07-50.167-62.244-51.405-10.177-50.572-64.521-32.545-86.36 18.027-21.84 44.806-9.23 54.041-2.812 9.236 6.417 6.735 10.238 8.721 14.357 1.987 4.118 12.049 50.318 54.539 43.781 0 0 42.6-27.779 80.32 24.496 0 0-1.77 17.452 109.91 50.582 111.69 33.13 135.53 102.62 139.96 116.16 4.43 13.53 6.27 23.86 2.26 30.22z" fill="#3ef8f4"/>
 <path d="m50.952 54.393s71.738 91.687 270.04 126.34l6.42-0.88s-178.65-33.63-276.46-125.46z" fill="#17e4e0"/>
</svg>
